<svg width="48" height="46" viewBox="0 0 48 46" fill="none" xmlns="http://www.w3.org/2000/svg">
<path fill-rule="evenodd" clip-rule="evenodd" d="M32.5553 42.0139H17.2775C15.1768 42.0139 13.458 40.2952 13.458 38.1945V7.63879C13.458 5.53809 15.1768 3.81934 17.2775 3.81934H32.5553C34.656 3.81934 36.3748 5.53809 36.3748 7.63879V38.1945C36.3748 40.2952 34.656 42.0139 32.5553 42.0139Z" stroke="#643A97" stroke-width="2" stroke-miterlimit="10" stroke-linecap="round" stroke-linejoin="round"/>
<path d="M27.7237 5.72906H22.1091C22.0709 5.72906 22.0518 5.70997 22.0518 5.67177V3.81934H27.7809V5.67177C27.7809 5.70997 27.7618 5.72906 27.7237 5.72906Z" stroke="#643A97" stroke-width="1.5" stroke-miterlimit="10" stroke-linecap="round"/>
<path d="M20.1426 18.1422L24.9169 14.3228L30.6461 17.1873M20.1426 18.1422L25.8718 21.0068M20.1426 18.1422V24.8263L25.8718 27.6909M30.6461 17.1873L25.8718 21.0068M30.6461 17.1873V23.8714L25.8718 27.6909M25.8718 21.0068V27.6909" stroke="#643A97" stroke-width="2"/>
<path d="M11.1334 30.8218L11.4578 30.1456L11.1334 30.8218ZM8.49537 29.5564L8.17099 30.2326L8.49537 29.5564ZM6.14356 22.8985L6.82071 23.221L6.14356 22.8985ZM8.70682 18.7492C8.5683 18.3588 8.13955 18.1547 7.74919 18.2932L1.3878 20.5505C0.997437 20.689 0.793274 21.1177 0.931789 21.5081C1.07031 21.8984 1.49905 22.1026 1.88942 21.9641L7.54398 19.9576L9.55045 25.6122C9.68896 26.0026 10.1177 26.2067 10.5081 26.0682C10.8984 25.9297 11.1026 25.5009 10.9641 25.1106L8.70682 18.7492ZM40.079 19.8652C39.8941 19.4945 39.4437 19.344 39.0731 19.5289C38.7024 19.7138 38.5519 20.1642 38.7368 20.5348L40.079 19.8652ZM41.2238 23.8398L40.5527 24.1747L41.2238 23.8398ZM39.4494 29.1952L39.7878 29.8645V29.8645L39.4494 29.1952ZM36.7612 30.5544L36.4228 29.8851L36.7612 30.5544ZM11.1334 30.8218L11.4578 30.1456L8.81974 28.8801L8.49537 29.5564L8.17099 30.2326L10.809 31.498L11.1334 30.8218ZM6.14356 22.8985L6.82071 23.221L8.67714 19.3224L8 19L7.32285 18.6776L5.46642 22.5761L6.14356 22.8985ZM39.4079 20.2L38.7368 20.5348L40.5527 24.1747L41.2238 23.8398L41.8949 23.505L40.079 19.8652L39.4079 20.2ZM39.4494 29.1952L39.111 28.5259L36.4228 29.8851L36.7612 30.5544L37.0996 31.2237L39.7878 29.8645L39.4494 29.1952ZM41.2238 23.8398L40.5527 24.1747C41.351 25.7747 40.7068 27.7191 39.111 28.5259L39.4494 29.1952L39.7878 29.8645C42.1201 28.6853 43.0616 25.8436 41.8949 23.505L41.2238 23.8398ZM8.49537 29.5564L8.81974 28.8801C6.70767 27.867 5.81359 25.3359 6.82071 23.221L6.14356 22.8985L5.46642 22.5761C4.10385 25.4375 5.31348 28.8619 8.17099 30.2326L8.49537 29.5564ZM11.1334 30.8218L10.809 31.498C19.1397 35.4941 28.8541 35.3927 37.0996 31.2237L36.7612 30.5544L36.4228 29.8851C28.5931 33.8439 19.3684 33.9402 11.4578 30.1456L11.1334 30.8218Z" fill="#643A97"/>
</svg>
