<svg width="75" height="75" viewBox="0 0 75 75" fill="none" xmlns="http://www.w3.org/2000/svg">
<rect width="75" height="75" fill="#200047"/>
<path d="M42.1684 36.2962L40.3471 35.9515C40.9193 35.4701 41.3297 34.8244 41.5226 34.1018C41.7154 33.3793 41.6815 32.615 41.4253 31.9124C41.169 31.2098 40.703 30.6031 40.0903 30.1743C39.4776 29.7456 38.7478 29.5156 38 29.5156C37.2522 29.5156 36.5224 29.7456 35.9097 30.1743C35.297 30.6031 34.831 31.2098 34.5747 31.9124C34.3185 32.615 34.2846 33.3793 34.4774 34.1018C34.6703 34.8244 35.0807 35.4701 35.6529 35.9515L33.8313 36.2971C33.3549 36.3878 32.9251 36.6418 32.6159 37.0152C32.3066 37.3887 32.1371 37.8582 32.1367 38.3431V43.5865C32.1367 43.7243 32.1915 43.8565 32.2889 43.9539C32.3863 44.0513 32.5185 44.1061 32.6562 44.1061C32.794 44.1061 32.9262 44.0513 33.0236 43.9539C33.121 43.8565 33.1758 43.7243 33.1758 43.5865V38.3422C33.1761 38.0993 33.261 37.864 33.416 37.6769C33.5711 37.4898 33.7864 37.3626 34.0251 37.3171L37.1895 36.7169C37.7226 36.8423 38.2774 36.8423 38.8105 36.7169L41.9749 37.3171C42.2136 37.3626 42.429 37.4898 42.5841 37.677C42.7391 37.8642 42.824 38.0995 42.8242 38.3425V43.5865C42.8242 43.7243 42.879 43.8565 42.9764 43.9539C43.0738 44.0513 43.206 44.1061 43.3438 44.1061C43.4815 44.1061 43.6137 44.0513 43.7111 43.9539C43.8085 43.8565 43.8633 43.7243 43.8633 43.5865V38.3422C43.8629 37.8573 43.6934 37.3877 43.384 37.0142C43.0747 36.6408 42.6448 36.3869 42.1684 36.2962ZM35.3931 33.1647C35.3935 32.6492 35.5467 32.1454 35.8333 31.7169C36.12 31.2885 36.5273 30.9546 37.0036 30.7576C37.48 30.5606 38.0041 30.5092 38.5097 30.61C39.0152 30.7108 39.4796 30.9592 39.844 31.3238C40.2084 31.6885 40.4565 32.153 40.5569 32.6586C40.6573 33.1642 40.6056 33.6883 40.4083 34.1645C40.2109 34.6408 39.8768 35.0478 39.4481 35.3342C39.0195 35.6205 38.5155 35.7734 38 35.7734C37.3086 35.7726 36.6457 35.4975 36.1569 35.0084C35.6681 34.5193 35.3935 33.8562 35.3931 33.1647Z" fill="white"/>
<path d="M34.8965 39.7434C34.7587 39.7435 34.6266 39.7982 34.5292 39.8957C34.4318 39.9931 34.377 40.1252 34.377 40.2629V43.5865C34.377 43.7242 34.4317 43.8564 34.5291 43.9538C34.6266 44.0512 34.7587 44.106 34.8965 44.106C35.0343 44.106 35.1664 44.0512 35.2638 43.9538C35.3613 43.8564 35.416 43.7242 35.416 43.5865V40.2629C35.416 40.1252 35.3613 39.993 35.2638 39.8956C35.1664 39.7981 35.0343 39.7434 34.8965 39.7434Z" fill="white"/>
<path d="M41.1025 39.7434C40.9648 39.7434 40.8326 39.7981 40.7352 39.8956C40.6377 39.993 40.583 40.1252 40.583 40.2629V43.5865C40.583 43.7242 40.6377 43.8564 40.7352 43.9538C40.8326 44.0512 40.9648 44.106 41.1025 44.106C41.2403 44.106 41.3725 44.0512 41.4699 43.9538C41.5673 43.8564 41.6221 43.7242 41.6221 43.5865V40.2629C41.622 40.1252 41.5672 39.9931 41.4698 39.8957C41.3724 39.7982 41.2403 39.7435 41.1025 39.7434Z" fill="white"/>
<path d="M54.5031 38C54.5031 37.5867 54.4096 37.1788 54.2297 36.8068C54.0498 36.4348 53.788 36.1083 53.4641 35.8518C56.1 30.2022 56.0944 25.2628 53.416 22.5847C50.7375 19.9066 45.7984 19.9007 40.1489 22.5366C39.8926 22.2123 39.5662 21.9502 39.1941 21.7701C38.8221 21.5899 38.4141 21.4963 38.0007 21.4963C37.5874 21.4963 37.1793 21.5899 36.8073 21.7701C36.4353 21.9502 36.1088 22.2123 35.8525 22.5366C30.2027 19.9004 25.2636 19.9063 22.5855 22.5847C19.9074 25.2631 19.9014 30.2025 22.5371 35.8518C22.2129 36.1081 21.9509 36.4346 21.7708 36.8066C21.5907 37.1786 21.4971 37.5866 21.4971 38C21.4971 38.4133 21.5907 38.8213 21.7708 39.1933C21.9509 39.5653 22.2129 39.8918 22.5371 40.1481C19.9014 45.7974 19.9068 50.7368 22.5855 53.4152C23.9333 54.7633 25.8529 55.436 28.148 55.436C30.4147 55.436 33.0465 54.7781 35.8555 53.4674C36.112 53.7905 36.4381 54.0515 36.8096 54.2309C37.181 54.4103 37.5882 54.5035 38.0007 54.5035C38.4132 54.5035 38.8204 54.4103 39.1919 54.2309C39.5633 54.0515 39.8895 53.7905 40.1459 53.4674C42.9541 54.7781 45.5865 55.4363 47.8531 55.436C50.148 55.436 52.0687 54.763 53.416 53.4152C56.0944 50.7371 56.1 45.7977 53.4641 40.1481C53.788 39.8916 54.0498 39.5651 54.2297 39.1931C54.4096 38.8211 54.5031 38.4132 54.5031 38ZM51.757 39.707C51.4194 39.707 51.0894 39.6069 50.8086 39.4193C50.5279 39.2317 50.3091 38.9651 50.1799 38.6532C50.0507 38.3413 50.0169 37.9981 50.0828 37.6669C50.1487 37.3358 50.3112 37.0316 50.55 36.7929C50.7887 36.5542 51.0929 36.3916 51.424 36.3257C51.7551 36.2599 52.0984 36.2937 52.4103 36.4229C52.7222 36.5521 52.9888 36.7709 53.1764 37.0516C53.3639 37.3323 53.4641 37.6623 53.4641 38C53.4635 38.4525 53.2835 38.8864 52.9635 39.2064C52.6435 39.5264 52.2096 39.7064 51.757 39.707ZM37.9995 49.0113C37.6268 49.0118 37.2582 49.0884 36.9161 49.2365C36.5741 49.3845 36.2659 49.6009 36.0105 49.8723C34.0885 48.5335 32.2902 47.0255 30.637 45.3663C28.9767 43.712 27.4678 41.9124 26.1284 39.989C26.3998 39.7334 26.6161 39.425 26.764 39.0828C26.9118 38.7405 26.9881 38.3716 26.9881 37.9988C26.9881 37.6259 26.9118 37.257 26.764 36.9148C26.6161 36.5725 26.3998 36.2641 26.1284 36.0085C28.8176 32.1614 32.1626 28.8173 36.0105 26.1291C36.2661 26.4005 36.5745 26.6168 36.9168 26.7646C37.259 26.9124 37.6279 26.9887 38.0007 26.9887C38.3735 26.9887 38.7424 26.9124 39.0847 26.7646C39.427 26.6168 39.7354 26.4005 39.991 26.1291C41.9129 27.4679 43.7113 28.9758 45.3647 30.6348C47.0239 32.2879 48.5318 34.0863 49.8704 36.0082C49.599 36.2638 49.3828 36.5723 49.235 36.9145C49.0872 37.2568 49.011 37.6257 49.011 37.9985C49.011 38.3713 49.0872 38.7401 49.235 39.0824C49.3828 39.4247 49.599 39.7331 49.8704 39.9887C48.532 41.9117 47.024 43.7111 45.3647 45.3651C43.7106 47.0244 41.9114 48.5324 39.9886 49.8711C39.7331 49.5999 39.4248 49.3837 39.0828 49.2359C38.7408 49.0881 38.3722 49.0117 37.9995 49.0113ZM52.6803 23.3192C55.0298 25.669 54.9662 30.153 52.542 35.3696C51.9517 35.1915 51.3184 35.2196 50.7462 35.4492C49.3669 33.4638 47.8116 31.6067 46.0992 29.9003C44.3928 28.1878 42.5357 26.6326 40.5503 25.2533C40.7799 24.6811 40.808 24.0478 40.6298 23.4575C45.8465 21.0335 50.3305 20.9697 52.6803 23.3192ZM37.9995 22.5354C38.3372 22.5354 38.6672 22.6356 38.9479 22.8231C39.2286 23.0107 39.4474 23.2773 39.5766 23.5892C39.7058 23.9011 39.7396 24.2444 39.6738 24.5755C39.6079 24.9066 39.4453 25.2108 39.2066 25.4495C38.9679 25.6883 38.6637 25.8508 38.3326 25.9167C38.0014 25.9826 37.6582 25.9488 37.3463 25.8196C37.0344 25.6904 36.7678 25.4716 36.5802 25.1908C36.3926 24.9101 36.2925 24.5801 36.2925 24.2425C36.2931 23.7899 36.4731 23.356 36.7931 23.036C37.1131 22.716 37.547 22.536 37.9995 22.5354ZM23.3188 23.3192C25.6688 20.9697 30.1525 21.0333 35.3692 23.4575C35.1911 24.0478 35.2192 24.6811 35.4488 25.2533C31.4755 28.0241 28.0237 31.4759 25.2529 35.4492C24.6807 35.2196 24.0474 35.1915 23.4571 35.3696C21.0328 30.153 20.969 25.6693 23.3188 23.3192ZM24.2421 36.2926C24.5797 36.2926 24.9097 36.3927 25.1904 36.5803C25.4711 36.7679 25.6899 37.0344 25.8191 37.3463C25.9483 37.6582 25.9821 38.0014 25.9163 38.3326C25.8505 38.6637 25.6879 38.9679 25.4492 39.2066C25.2105 39.4454 24.9064 39.608 24.5753 39.6739C24.2441 39.7398 23.9009 39.706 23.589 39.5768C23.2771 39.4477 23.0105 39.2289 22.8229 38.9482C22.6352 38.6676 22.5351 38.3376 22.535 38C22.5356 37.5474 22.7156 37.1135 23.0356 36.7935C23.3556 36.4735 23.7895 36.2932 24.2421 36.2926ZM23.3188 52.6801C20.969 50.3301 21.0328 45.8464 23.4571 40.6297C24.0474 40.8078 24.6807 40.7797 25.2529 40.5501C26.6321 42.5358 28.1873 44.3931 29.8999 46.0996C31.6062 47.8121 33.4634 49.3673 35.4488 50.7466C35.2192 51.3188 35.1911 51.9521 35.3692 52.5424C30.1525 54.9667 25.6691 55.0305 23.3188 52.6807V52.6801ZM37.9995 53.4645C37.6619 53.4645 37.3319 53.3643 37.0512 53.1768C36.7704 52.9892 36.5516 52.7226 36.4224 52.4107C36.2932 52.0988 36.2594 51.7555 36.3253 51.4244C36.3912 51.0933 36.5537 50.7891 36.7925 50.5504C37.0312 50.3117 37.3354 50.1491 37.6665 50.0832C37.9976 50.0173 38.3409 50.0511 38.6528 50.1803C38.9647 50.3095 39.2313 50.5283 39.4189 50.8091C39.6065 51.0898 39.7066 51.4198 39.7066 51.7574C39.706 52.21 39.526 52.6439 39.206 52.9639C38.886 53.2839 38.4521 53.4639 37.9995 53.4645ZM52.6803 52.6807C50.3302 55.0302 45.8465 54.9667 40.6298 52.5424C40.808 51.9521 40.7799 51.3188 40.5503 50.7466C42.5356 49.3672 44.3928 47.812 46.0992 46.0996C47.8116 44.3932 49.3669 42.5361 50.7462 40.5507C51.3184 40.7803 51.9517 40.8084 52.542 40.6303C54.9662 45.847 55.0298 50.331 52.6803 52.6807Z" fill="white"/>
</svg>
