<svg width="75" height="75" viewBox="0 0 75 75" fill="none" xmlns="http://www.w3.org/2000/svg">
<rect width="75" height="75" fill="#200047"/>
<path d="M53.813 48.369C53.7965 48.344 53.8305 48.3935 53.813 48.369L43.912 34.0835V22.71C43.912 22.1575 43.6425 21.75 43.0905 21.75H33.59C33.038 21.75 32.912 22.158 32.912 22.71V33.7585L22.4525 48.382C22.435 48.4065 22.344 48.5205 22.3285 48.547C21.4845 50.01 21.2895 51.3575 21.936 52.477C22.589 53.6075 23.8935 54.25 25.6095 54.25H50.335C52.0495 54.25 53.394 53.6065 54.047 52.4745C54.695 51.352 54.657 49.833 53.813 48.369ZM34.569 34.651C34.6875 34.482 34.9125 34.281 34.9125 34.075V23.75H41.9125V34.4005C41.9125 34.6065 41.8155 34.8125 41.9345 34.981L46.5295 41.612C45.0015 42.228 43.1185 42.637 39.264 40.3335C36.4715 38.665 33.0145 39.3095 30.6645 40.109L34.569 34.651ZM52.2755 51.4745C51.9985 51.9545 51.291 52.25 50.3355 52.25H25.61C24.6525 52.25 23.945 51.9555 23.6685 51.4765C23.4025 51.0155 23.5065 50.281 23.954 49.489L29.5975 41.6005C31.5685 40.7495 35.707 39.3735 38.7515 41.1925C41.1775 42.6415 42.935 43.0995 44.3095 43.0995C45.455 43.0995 46.3345 42.781 47.113 42.454L51.9905 49.492C52.439 50.284 52.543 51.0115 52.2755 51.4745Z" fill="white"/>
<path d="M31.0138 45.4846C29.5053 45.4846 28.2783 46.7111 28.2783 48.2201C28.2783 49.7286 29.5053 50.9556 31.0138 50.9556C32.5218 50.9556 33.7493 49.7286 33.7493 48.2201C33.7493 46.7111 32.5223 45.4846 31.0138 45.4846ZM31.0138 49.9556C30.0568 49.9556 29.2783 49.1766 29.2783 48.2196C29.2783 47.2626 30.0568 46.4841 31.0138 46.4841C31.9708 46.4841 32.7493 47.2626 32.7493 48.2196C32.7493 49.1766 31.9708 49.9556 31.0138 49.9556Z" fill="white"/>
<path d="M45.3878 46.2346C44.0863 46.2346 43.0273 47.2931 43.0273 48.5951C43.0273 49.8966 44.0863 50.9556 45.3878 50.9556C46.6898 50.9556 47.7488 49.8966 47.7488 48.5951C47.7488 47.2931 46.6898 46.2346 45.3878 46.2346ZM45.3878 49.9556C44.6378 49.9556 44.0273 49.3446 44.0273 48.5946C44.0273 47.8446 44.6378 47.2341 45.3878 47.2341C46.1378 47.2341 46.7488 47.8446 46.7488 48.5946C46.7488 49.3446 46.1378 49.9556 45.3878 49.9556Z" fill="white"/>
<path d="M37.5388 42.7346C36.4303 42.7346 35.5283 43.6361 35.5283 44.7451C35.5283 45.8536 36.4298 46.7556 37.5388 46.7556C38.6473 46.7556 39.5493 45.8531 39.5493 44.7451C39.5493 43.6371 38.6473 42.7346 37.5388 42.7346ZM37.5388 45.7561C36.9818 45.7561 36.5283 45.3021 36.5283 44.7456C36.5283 44.1886 36.9818 43.7351 37.5388 43.7351C38.0958 43.7351 38.5493 44.1881 38.5493 44.7456C38.5493 45.3031 38.0958 45.7561 37.5388 45.7561Z" fill="white"/>
<path d="M40.4121 31.21C40.6886 31.21 40.9121 30.9865 40.9121 30.71V25.21C40.9121 24.9335 40.6886 24.71 40.4121 24.71C40.1356 24.71 39.9121 24.9335 39.9121 25.21V30.71C39.9121 30.9865 40.1356 31.21 40.4121 31.21Z" fill="white"/>
<path d="M40.4121 33.71C40.6886 33.71 40.9121 33.4865 40.9121 33.21V32.71C40.9121 32.4335 40.6886 32.21 40.4121 32.21C40.1356 32.21 39.9121 32.4335 39.9121 32.71V33.21C39.9121 33.4865 40.1356 33.71 40.4121 33.71Z" fill="white"/>
</svg>
