<svg width="51" height="52" viewBox="0 0 51 52" fill="none" xmlns="http://www.w3.org/2000/svg">
<path d="M33.4688 24.4062H17.5312" stroke="#643A97" stroke-width="2" stroke-miterlimit="10" stroke-linecap="round" stroke-linejoin="round"/>
<path d="M12.75 18.0312H38.25C40.0031 18.0312 41.4375 19.4656 41.4375 21.2188V35.5625C41.4375 37.3156 40.0031 38.75 38.25 38.75H32.0344C31.2375 38.75 30.4406 38.4312 29.8031 37.7937L27.8906 35.8813C26.6156 34.6063 24.7031 34.6063 23.4281 35.8813L21.5156 37.7937C20.8781 38.4312 20.0813 38.75 19.2844 38.75H12.75C10.9969 38.75 9.5625 37.3156 9.5625 35.5625V21.2188C9.5625 19.4656 10.9969 18.0312 12.75 18.0312Z" stroke="#643A97" stroke-width="2" stroke-miterlimit="10" stroke-linecap="round" stroke-linejoin="round"/>
<path d="M41.4375 22.8125H46.2188V33.9688H41.4375V22.8125Z" stroke="#643A97" stroke-width="2" stroke-miterlimit="10" stroke-linecap="round" stroke-linejoin="round"/>
<path d="M4.78125 22.8125H9.5625V33.9688H4.78125V22.8125Z" stroke="#643A97" stroke-width="2" stroke-miterlimit="10" stroke-linecap="round" stroke-linejoin="round"/>
</svg>
