<svg width="39" height="39" viewBox="0 0 39 39" fill="none" xmlns="http://www.w3.org/2000/svg">
<path d="M29.1094 20.8991C29.0389 20.8991 28.9672 20.8876 28.898 20.8632C28.6404 20.7736 28.4688 20.5314 28.4688 20.2585V15.6562H25.2656C24.912 15.6562 24.625 15.3692 24.625 15.0156C24.625 14.662 24.912 14.375 25.2656 14.375H29.1094C29.463 14.375 29.75 14.662 29.75 15.0156V18.4212L32.7712 14.6172C32.8929 14.4634 33.0787 14.375 33.2734 14.375H36.7969C37.1505 14.375 37.4375 14.0867 37.4375 13.7344V2.20312C37.4375 1.85078 37.1505 1.5625 36.7969 1.5625H17.5781C17.2245 1.5625 16.9375 1.85078 16.9375 2.20312V13.7344C16.9375 14.0867 17.2245 14.375 17.5781 14.375H20.1406C20.4942 14.375 20.7812 14.662 20.7812 15.0156C20.7812 15.3692 20.4942 15.6562 20.1406 15.6562H17.5781C16.5185 15.6562 15.6562 14.794 15.6562 13.7344V2.20312C15.6562 1.14353 16.5185 0.28125 17.5781 0.28125H36.7969C37.8565 0.28125 38.7188 1.14353 38.7188 2.20312V13.7344C38.7188 14.794 37.8565 15.6562 36.7969 15.6562H33.5822L29.6103 20.6557C29.4873 20.812 29.3003 20.8991 29.1094 20.8991Z" fill="#643A97"/>
<path d="M22.7031 22.0574V23.3386C24.1163 23.3386 25.2656 24.4879 25.2656 25.9011C25.2656 27.3143 24.1163 28.4636 22.7031 28.4636V29.7449C24.8223 29.7449 26.5469 28.0203 26.5469 25.9011C26.5469 23.7819 24.8223 22.0574 22.7031 22.0574Z" fill="#643A97"/>
<path d="M7.87425 30.4713L8.49566 37.0505L6.54944 37.4413L6.51356 37.4758L5.43859 30.47H4.14453L5.26306 37.7385C5.41681 38.3163 5.94469 38.7212 6.54687 38.7212C6.63016 38.7212 6.716 38.7135 6.80056 38.6956L8.74678 38.3048C9.08503 38.2382 9.37331 38.0434 9.56166 37.7564C9.75 37.4694 9.81406 37.1273 9.75384 36.8647L9.15806 30.47L7.87425 30.4713Z" fill="#643A97"/>
<path d="M9.89062 22.0624C9.537 22.0624 9.25 21.7754 9.25 21.4218C9.25 21.0681 9.537 20.7811 9.89062 20.7811C13.1655 20.7811 16.5813 19.5383 19.7678 17.1859C20.0535 16.9771 20.4533 17.0373 20.6634 17.3205C20.8735 17.6062 20.8133 18.0059 20.5288 18.2161C17.1207 20.7324 13.441 22.0624 9.89062 22.0624Z" fill="#643A97"/>
<path d="M22.7031 36.934C22.5302 36.934 22.3559 36.8635 22.2303 36.7251C22.1778 36.6687 16.9298 31.0261 9.84322 31.0261H3.32422C1.70344 31.0261 0.28125 29.5975 0.28125 27.9678V23.8012C0.28125 22.1612 1.67525 20.7761 3.32422 20.7761L7.32813 20.7812C7.68303 20.7812 7.96875 21.0695 7.96875 21.4232C7.96875 21.7755 7.68175 22.0625 7.32813 22.0625L3.32422 22.0574C2.36969 22.0574 1.5625 22.8556 1.5625 23.8012V27.9678C1.5625 28.898 2.403 29.7449 3.32422 29.7449H9.84194C17.5051 29.7449 22.9478 35.6117 23.1759 35.8616C23.4142 36.1229 23.3963 36.5278 23.1349 36.7661C23.0119 36.8776 22.8582 36.934 22.7031 36.934Z" fill="#643A97"/>
<path d="M10.5312 21.4692H9.25V30.3329H10.5312V21.4692Z" fill="#643A97"/>
<path d="M22.7031 37.4324C22.3495 37.4324 22.0625 37.1454 22.0625 36.7917V15.0105C22.0625 14.6569 22.3495 14.3699 22.7031 14.3699C23.0567 14.3699 23.3438 14.6569 23.3438 15.0105V36.7917C23.3438 37.1454 23.0567 37.4324 22.7031 37.4324Z" fill="#643A97"/>
<path d="M4.76562 27.1875H3.48438C3.13075 27.1875 2.84375 26.9005 2.84375 26.5469C2.84375 26.1933 3.13075 25.9062 3.48438 25.9062H4.76562C5.11925 25.9062 5.40625 26.1933 5.40625 26.5469C5.40625 26.9005 5.11925 27.1875 4.76562 27.1875Z" fill="#643A97"/>
<path d="M4.76562 24.625H3.48438C3.13075 24.625 2.84375 24.338 2.84375 23.9844C2.84375 23.6308 3.13075 23.3438 3.48438 23.3438H4.76562C5.11925 23.3438 5.40625 23.6308 5.40625 23.9844C5.40625 24.338 5.11925 24.625 4.76562 24.625Z" fill="#643A97"/>
</svg>
