<svg width="45" height="45" viewBox="0 0 45 45" fill="none" xmlns="http://www.w3.org/2000/svg">
<path d="M20.4605 24.6654L11.1797 33.9462M21.7863 13.3957C27.0898 8.09251 35.3761 5.10939 39.6851 5.44103C40.0165 9.74978 37.0334 18.0363 31.7302 23.3395C26.4267 28.6427 20.4605 32.6203 17.1459 33.9462L11.1797 27.9799C12.5055 24.6654 16.4831 18.6992 21.7863 13.3957Z" stroke="#643A97" stroke-width="2" stroke-linecap="round" stroke-linejoin="round"/>
<path d="M31.3539 13.771C32.0617 14.4789 32.0617 15.6265 31.3539 16.3343C30.6461 17.0421 29.4985 17.0421 28.7906 16.3343C28.0828 15.6265 28.0828 14.4789 28.7906 13.771C29.4985 13.0632 30.6461 13.0632 31.3539 13.771Z" fill="black" stroke="#643A97" stroke-width="2"/>
<path d="M27.089 27.9797L27.4567 32.0241C27.6393 34.0327 26.7325 35.985 25.0804 37.1416L21.1227 39.912L20.7913 32.2884M17.1452 18.0359L13.1008 17.6681C12.114 17.5784 11.1211 17.7509 10.2225 18.1682C9.32384 18.5855 8.55136 19.2327 7.9832 20.0445L5.21289 24.0021L12.8364 24.3335" stroke="#643A97" stroke-width="2" stroke-linecap="round" stroke-linejoin="round"/>
</svg>
