<svg width="45" height="45" viewBox="0 0 45 45" fill="none" xmlns="http://www.w3.org/2000/svg">
<path fill-rule="evenodd" clip-rule="evenodd" d="M32.0625 16.1252H28.0781C27.7761 16.1252 27.5004 15.9547 27.3649 15.6845L26.4844 13.9226L25.6038 15.6845C25.4636 15.9642 25.1831 16.1252 24.8898 16.1252C24.7703 16.1252 24.6484 16.0981 24.5344 16.0415C24.1408 15.8447 23.9814 15.3658 24.1782 14.9721L25.772 11.7846C26.0429 11.2444 26.9266 11.2444 27.1976 11.7846L28.5706 14.5315H32.0075C31.6736 11.7623 29.6304 8.81149 26.0987 8.2497C25.6644 8.18037 25.368 7.77237 25.4373 7.33727C25.5066 6.90298 25.9066 6.60335 26.3497 6.67587C31.0951 7.4313 33.6562 11.697 33.6562 15.3283V16.9221C33.6562 21.281 35.1671 22.3225 35.9775 22.8819C36.3632 23.1481 36.8438 23.4796 36.8438 24.094C36.8438 26.0694 29.8822 27.2815 24.8906 27.2815C20.005 27.2815 12.9375 26.1459 12.9375 24.094C12.9375 23.4596 13.4108 23.1289 13.8284 22.8373C14.3137 22.4978 14.9783 22.034 15.47 20.9065C15.6461 20.504 16.1154 20.3184 16.5187 20.4937C16.9219 20.6698 17.1068 21.1391 16.9314 21.5424C16.2995 22.9911 15.4206 23.6652 14.8452 24.0701C15.7377 24.5179 17.9052 25.1418 20.8728 25.4686C20.3381 24.8701 19.8663 24.1362 19.4735 23.2421C19.2958 22.8397 19.479 22.3687 19.8823 22.1926C20.2863 22.0141 20.7564 22.1982 20.9318 22.6014C21.8577 24.7076 23.1152 25.6877 24.8906 25.6877C26.3951 25.6877 28.5292 25.0916 29.691 19.9343C29.7731 19.5709 30.0958 19.3127 30.4688 19.3127C31.2393 19.3127 32.0625 18.8944 32.0625 17.719V16.1252ZM31.1102 20.8531C30.5978 22.8604 29.8607 24.3952 28.9109 25.4654C31.88 25.1299 33.9758 24.4892 34.8834 24.0629C34.1439 23.5393 33.0124 22.5911 32.4338 20.2897C32.0577 20.5654 31.6155 20.7654 31.1102 20.8531Z" fill="#643A97"/>
<path fill-rule="evenodd" clip-rule="evenodd" d="M19.7611 27.5506C19.8153 27.545 19.8663 27.5602 19.9197 27.5594C19.942 27.561 19.9628 27.5538 19.9859 27.557C19.9922 27.5578 19.997 27.5626 20.0034 27.5634C20.6114 27.5928 21.1684 27.9427 21.4099 28.5116C22.6331 31.3987 24.3424 33.5877 24.8835 33.6555C25.4373 33.5861 27.1466 31.3955 28.3706 28.5116C28.6104 27.9459 29.1659 27.5968 29.7739 27.5649C29.781 27.5634 29.7866 27.5586 29.7938 27.557C29.8201 27.553 29.844 27.561 29.8703 27.5594C29.9221 27.5594 29.9715 27.545 30.0233 27.5506C38.0088 28.4909 43.2658 30.613 44.7966 38.2813C44.8069 38.3323 44.8125 38.3849 44.8125 38.4367C44.8125 40.6186 42.182 41.9382 36.9936 42.3581C34.8077 44.63 27.2422 44.8125 24.8914 44.8125C22.5406 44.8125 14.9751 44.63 12.7885 42.3589C7.59923 41.939 4.96955 40.6194 4.96955 38.4375C4.96955 38.3857 4.97512 38.3323 4.98548 38.2813C6.51787 30.6138 11.7741 28.4909 19.7611 27.5506ZM20.3636 30.0496L19.5101 34.9767L22.9518 34.1169C21.8529 32.9423 20.8887 31.1389 20.3636 30.0496ZM26.8286 34.1161L30.2719 34.9767L29.4177 30.0488C28.8917 31.1381 27.9275 32.9415 26.8286 34.1161ZM13.2435 40.7955C13.4857 40.8122 13.7073 40.9405 13.8443 41.1413C14.7743 42.5048 20.1054 43.2188 24.8914 43.2188C29.6775 43.2188 35.0085 42.5048 35.9385 41.1413C36.0756 40.9405 36.2971 40.813 36.5393 40.7955C40.5197 40.5094 43.1183 39.6137 43.2164 38.5029C41.9127 32.151 37.702 30.2002 30.9007 29.2727L32.0513 35.9106C32.0976 36.176 32.0059 36.4469 31.8083 36.6302C31.6593 36.7689 31.4656 36.8438 31.2664 36.8438C31.2019 36.8438 31.1373 36.8358 31.0736 36.8199L24.8914 35.2755L18.7093 36.8199C18.4479 36.8868 18.1722 36.8143 17.9737 36.631C17.7761 36.4485 17.6853 36.1776 17.7307 35.9114L18.8798 29.2727C12.0809 30.2002 7.87097 32.1534 6.56569 38.5036C6.6645 39.6137 9.26311 40.5094 13.2435 40.7955Z" fill="#643A97"/>
<path fill-rule="evenodd" clip-rule="evenodd" d="M12.1406 0.1875C18.7316 0.1875 24.0938 4.47708 24.0938 9.75C24.0938 11.8984 23.1933 13.9806 21.5485 15.6572L22.4817 19.9396C22.5494 20.248 22.4291 20.566 22.1733 20.7533C22.0338 20.8553 21.8689 20.9062 21.7031 20.9062C21.5661 20.9062 21.429 20.8712 21.3055 20.7995L17.184 18.4256C15.6022 19.0145 13.9081 19.3125 12.1406 19.3125C5.54967 19.3125 0.1875 15.0229 0.1875 9.75C0.1875 4.47708 5.54967 0.1875 12.1406 0.1875ZM12.1406 17.7188C13.8165 17.7188 15.4787 17.4032 16.9506 16.8055C17.1777 16.7139 17.4351 16.7306 17.6478 16.8541L20.5413 18.5212L19.9006 15.5863C19.8568 15.407 19.8751 15.2134 19.962 15.0389C20.0106 14.9424 20.0767 14.8588 20.154 14.7918C21.6673 13.3718 22.5 11.582 22.5 9.75C22.5 5.35603 17.8526 1.78125 12.1406 1.78125C6.42862 1.78125 1.78125 5.35603 1.78125 9.75C1.78125 14.144 6.42862 17.7188 12.1406 17.7188Z" fill="#643A97"/>
</svg>
