<svg width="47" height="48" viewBox="0 0 47 48" fill="none" xmlns="http://www.w3.org/2000/svg">
<path d="M8.31641 33.373C7.61848 34.0394 6.55772 34.0746 5.82324 33.4678L5.67578 33.333C4.94262 32.59 4.90967 31.389 5.58203 30.6025L8.31641 33.373ZM14.2188 24.3057L15.6016 25.707L8.45801 33.2314L5.7168 30.4541L12.8311 22.96L14.2188 24.3057ZM23.2646 24.1172C23.673 24.3891 24.1849 24.4122 24.6104 24.1973L26.1465 25.5186L27.4316 26.9824C25.5854 28.6495 22.864 28.759 20.8984 27.2451L22.1201 25.6162L23.2646 24.1172ZM23.0918 23.9844L21.9404 25.5225L21.915 25.5557L20.7275 27.1104L18.0684 24.9424L19.251 23.376L20.4385 21.8203L23.0918 23.9844ZM27.626 26.79C27.6099 26.8082 27.5939 26.8263 27.5771 26.8438L27.2344 26.4531L27.626 26.79ZM34.8633 14.2695V17.8135L27.7549 26.6367L26.2871 25.374L24.9775 23.8838L32.7246 14.2695H34.8633ZM14.583 23.9023L16.0605 25.168C15.9656 25.291 15.8673 25.411 15.7646 25.5273L14.3701 24.1738L12.9941 22.7793C13.0134 22.7561 13.0322 22.7327 13.0508 22.709L14.583 23.9023ZM13.2314 22.4805C15.0109 20.3435 18.0896 19.9984 20.2715 21.6885L19.0918 23.2549L17.9004 24.8135C17.3836 24.4651 16.7052 24.525 16.2539 24.9482L14.7061 23.7441H14.707L14.7012 23.7393L13.2314 22.4805ZM25.2012 24.4414L24.8037 24.0996L24.8496 24.042H24.8506L25.2012 24.4414ZM38.8955 22.2109C38.8452 23.2634 38.0057 24.0957 36.9814 24.0957C35.9573 24.0956 35.1187 23.2633 35.0684 22.2109H38.8955ZM38.9004 22.0107H35.0635V17.8848L38.6113 13.4814C38.7272 13.3376 38.8182 13.181 38.8926 13.0195C38.8949 13.0145 38.8981 13.0099 38.9004 13.0049V22.0107ZM35.0635 17.5654V14.2695H36.9814C37.3073 14.2695 37.6143 14.1909 37.8896 14.0557L35.0635 17.5654ZM36.8818 12.1846V14.0693H35.0635V12.1846H36.8818ZM34.9355 11.5234C34.8894 11.7028 34.8633 11.8909 34.8633 12.085V14.0693H32.8857L34.9355 11.5234ZM36.1006 10.0996C36.097 10.1013 36.0934 10.1028 36.0898 10.1045C36.0553 10.121 36.0201 10.1367 35.9863 10.1553C35.9672 10.1658 35.9494 10.1784 35.9307 10.1895C35.8869 10.2153 35.843 10.2413 35.8008 10.2705C35.7905 10.2777 35.7807 10.2856 35.7705 10.293C35.6713 10.3644 35.5764 10.4446 35.4883 10.5352C35.4365 10.5882 35.3871 10.6438 35.3408 10.7021L32.6289 14.0693H26.6377V10.0996H36.1006ZM26.4375 14.0635C25.4273 14.0097 24.6192 13.1492 24.6191 12.085C24.6191 11.0206 25.4272 10.1582 26.4375 10.1045V14.0635ZM38.3906 13.4277C38.0608 13.7978 37.5988 14.0358 37.082 14.0635V12.3027L38.3906 13.4277ZM38.8955 12.1846C38.8908 12.2833 38.8814 12.3803 38.8633 12.4746C38.809 12.7565 38.6919 13.028 38.5156 13.2715L37.251 12.1846H38.8955ZM37.1279 10.1074C37.1589 10.1099 37.1898 10.1132 37.2207 10.1172C37.4349 10.1448 37.6377 10.2091 37.8242 10.3037C37.8458 10.3147 37.8683 10.3241 37.8896 10.3359C38.0564 10.4288 38.2082 10.5468 38.3408 10.6846C38.3638 10.7084 38.3846 10.734 38.4062 10.7588C38.4256 10.7811 38.4454 10.803 38.4639 10.8262C38.4949 10.8652 38.524 10.9054 38.5518 10.9463C38.5593 10.9573 38.5669 10.9683 38.5742 10.9795C38.5973 11.0151 38.618 11.052 38.6387 11.0889C38.651 11.1107 38.6643 11.1319 38.6758 11.1543C38.6873 11.1768 38.6974 11.1998 38.708 11.2227C38.7261 11.2614 38.7431 11.3007 38.7588 11.3408C38.7635 11.3528 38.768 11.3649 38.7725 11.377C38.7899 11.4241 38.8064 11.4717 38.8203 11.5205C38.8545 11.64 38.8776 11.7622 38.8896 11.8857C38.8928 11.9184 38.8939 11.9513 38.8955 11.9844H37.082V10.1045C37.0974 10.1053 37.1127 10.1062 37.1279 10.1074ZM36.7119 11.9844H35.0684C35.088 11.5766 35.2246 11.2025 35.4463 10.8965L36.7119 11.9844ZM36.8818 11.8672L35.5723 10.7422C35.6188 10.6898 35.6672 10.6408 35.7178 10.5947C35.7353 10.5788 35.7514 10.5612 35.7695 10.5459C35.7989 10.521 35.8298 10.4984 35.8604 10.4756C35.8805 10.4605 35.9002 10.4449 35.9209 10.4307C35.9514 10.4097 35.9832 10.3911 36.0146 10.3721C36.0368 10.3587 36.0584 10.3445 36.0811 10.332C36.1196 10.3108 36.1595 10.2927 36.1992 10.2744C36.2165 10.2664 36.2334 10.2575 36.251 10.25C36.2854 10.2354 36.3204 10.2225 36.3555 10.21C36.3782 10.2018 36.4007 10.1928 36.4238 10.1855C36.4602 10.1741 36.4973 10.1654 36.5342 10.1562C36.5595 10.15 36.5847 10.1429 36.6104 10.1377C36.644 10.1309 36.678 10.127 36.7119 10.1221C36.7679 10.1139 36.8244 10.1075 36.8818 10.1045V11.8672Z" fill="#643A97" stroke="#643A97" stroke-width="0.2"/>
</svg>
