<svg width="41" height="41" viewBox="0 0 41 41" fill="none" xmlns="http://www.w3.org/2000/svg">
<path d="M30.75 8.87064C30.75 9.47005 31.3499 10.0695 32.1886 10.0695C33.3869 10.0695 33.7465 9.58993 33.7465 8.87064C33.7465 8.75076 33.7465 8.75076 33.7465 8.63141C33.6272 8.27177 33.267 8.03201 32.9084 7.79224C32.788 7.79224 32.5488 7.67236 32.3095 7.67236C31.4693 7.6729 30.75 8.15189 30.75 8.87064Z" fill="#643A97"/>
<path d="M33.2678 4.91464C33.1469 4.19535 32.6679 3.59595 32.069 3.59595C31.4691 3.59595 31.1094 4.19535 31.2304 4.91464C31.3513 5.63393 31.8292 6.23334 32.4286 6.23334C32.9082 6.23334 33.3872 5.63393 33.2678 4.91464Z" fill="#643A97"/>
<path d="M27.8737 13.9057L29.9116 11.8677C31.1099 12.8268 32.5501 13.4262 34.108 13.4262C37.8238 13.4262 40.8214 10.4286 40.8214 6.71283C40.8203 2.9965 37.8238 0 34.1075 0C30.3922 0 27.3941 2.99704 27.3941 6.71336C27.3941 8.3917 27.993 9.82975 28.9526 10.9092L26.9141 12.9477C27.2737 13.3068 27.6334 13.667 27.8737 13.9057ZM35.1864 4.55496H36.5046V3.2368H36.9841V4.5555H38.3033V5.03502H36.9841V6.35425H36.5046V5.03449H35.1864V4.55496ZM32.1894 6.83271C32.1894 6.71283 32.1894 6.59295 32.3103 6.47307C32.1894 6.47307 32.1894 6.47307 32.0711 6.47307C31.1115 6.47307 30.3922 5.75378 30.3922 4.91461C30.3922 4.07544 31.3507 3.35615 32.3103 3.35615H34.4671L33.9876 3.71579H33.2683C33.7478 3.83621 33.9876 4.43561 33.9876 5.03449C33.9876 5.51401 33.7478 5.87366 33.3877 6.2333C33.028 6.47307 32.9081 6.59295 32.9081 6.83271C32.9081 7.07247 33.2683 7.43212 33.5075 7.552C34.1064 7.91164 34.2268 8.39117 34.2268 8.99058C34.2268 9.82921 33.5075 10.549 32.0695 10.549C30.8712 10.549 29.7918 10.0695 29.7918 9.23034C29.7918 8.39117 30.7503 7.67188 31.9491 7.67188C32.0695 7.67188 32.1883 7.67188 32.3087 7.67188C32.3087 7.31277 32.1894 7.07301 32.1894 6.83271Z" fill="#643A97"/>
<path d="M34.1062 27.5728C32.5483 27.5728 30.9898 28.1717 29.9098 29.1313L27.8724 27.0928C27.6321 27.4524 27.2724 27.6911 27.0332 27.9309L29.0717 29.9694C28.1127 31.1671 27.5133 32.6073 27.5133 34.1658C27.5133 37.8816 30.5114 40.8791 34.2272 40.8791C37.9424 40.8791 40.9411 37.8816 40.9411 34.1658C40.819 30.4495 37.8225 27.5728 34.1062 27.5728ZM32.1881 37.2832H30.8694V33.0868H32.1881V37.2832ZM31.5887 32.4885C31.1092 32.4885 30.7501 32.1283 30.7501 31.7682C30.7501 31.4085 31.1097 31.0489 31.5887 31.0489C32.0677 31.0489 32.4273 31.4085 32.4273 31.7682C32.3075 32.2482 32.0682 32.4885 31.5887 32.4885ZM37.5828 37.2832H36.0243V35.1259C36.0243 34.527 35.7851 34.1669 35.3045 34.1669C34.9448 34.1669 34.7056 34.4066 34.5852 34.6464C34.5852 34.7679 34.5852 34.8867 34.5852 35.0066V37.2848H33.1466C33.1466 37.2848 33.1466 33.4486 33.1466 33.0885H34.5852V33.6879C34.7056 33.4486 35.1851 32.9686 35.9044 32.9686C36.8629 32.9686 37.5828 33.5674 37.5828 34.8867V37.2832Z" fill="#643A97"/>
<path d="M13.0077 27.0938L10.9698 29.1323C9.77095 28.1727 8.33237 27.5738 6.77391 27.5738C3.05758 27.5738 0.0605469 30.5719 0.0605469 34.2866C0.0605469 38.003 3.05758 41.0005 6.77391 41.0005C10.4897 41.0005 13.4873 38.003 13.4873 34.2866C13.4873 32.7282 12.8879 31.1703 11.9288 30.0908L13.9668 28.0523C13.6072 27.6921 13.2475 27.3319 13.0077 27.0938ZM9.6516 33.2072C9.6516 35.2452 8.09314 37.5224 5.33587 37.5224C4.49723 37.5224 3.65753 37.2826 3.05812 36.802C3.178 36.802 3.29788 36.802 3.41776 36.802C4.13705 36.802 4.73646 36.5628 5.33587 36.2031C4.73646 36.2031 4.13705 35.7236 3.89729 35.1237C4.01717 35.1237 4.13652 35.1237 4.13652 35.1237C4.25693 35.1237 4.37628 35.1237 4.4967 35.1237C3.77687 35.0027 3.29788 34.4044 3.29788 33.6851C3.53764 33.8055 3.77741 33.9243 4.01717 33.9243C3.65753 33.6851 3.29788 33.205 3.29788 32.7255C3.29788 32.4868 3.41776 32.246 3.53764 32.0062C4.25693 32.9658 5.33533 33.5647 6.65403 33.5647C6.65403 33.4437 6.65403 33.3254 6.65403 33.205C6.65403 32.3659 7.37385 31.6466 8.21249 31.6466C8.69201 31.6466 9.05166 31.8858 9.29196 32.1261C9.6516 32.0057 10.0112 31.8863 10.251 31.7665C10.1306 32.1261 9.89083 32.3653 9.53118 32.6046C9.89083 32.6046 10.1306 32.4841 10.3704 32.3653C10.1306 32.725 9.89083 32.9642 9.65106 33.0846C9.6516 33.0868 9.6516 33.0868 9.6516 33.2072Z" fill="#643A97"/>
<path d="M6.77391 13.4267C8.33237 13.4267 9.89029 12.8273 10.9698 11.8682L13.0077 13.9062C13.2475 13.5466 13.6072 13.3073 13.8469 13.0676L11.8084 11.0296C12.7674 9.83076 13.3669 8.39218 13.3669 6.83372C13.3669 3.1174 10.3698 0.120361 6.65349 0.120361C2.9377 0.120361 0.0605469 3.1174 0.0605469 6.83372C0.0605469 10.4291 3.05758 13.4267 6.77391 13.4267ZM5.21545 5.63384H5.93474V4.91455C5.93474 3.9555 6.29438 3.35609 7.4932 3.35609H8.45225V4.55491H7.85284C7.37332 4.55491 7.37332 4.67479 7.37332 5.03443V5.63384H8.45225L8.33237 6.83265H7.25236V10.1893H5.81379V6.83265H5.09503V5.63384H5.21545Z" fill="#643A97"/>
<path d="M26.5542 23.856C26.4333 23.6173 26.194 23.4958 26.0747 23.4958C24.9958 23.1361 24.0372 22.8975 22.9583 22.5373C22.8384 22.5373 22.5987 22.298 22.5987 21.818C22.5987 21.5777 22.5987 21.4578 22.3594 21.4578C22.2385 21.4578 22.3594 21.4578 22.2385 21.3379C22.1191 20.8584 22.1191 20.6181 22.1191 20.4988C22.1191 20.3794 22.2385 20.3783 22.2385 20.259C22.5987 19.7795 22.718 19.0607 22.718 18.8204C22.718 18.8204 22.8384 18.8204 22.8384 18.7C22.9583 18.4602 22.9583 18.4602 22.9583 18.1001C23.0793 17.8614 23.0793 17.5017 22.8384 17.5017C22.718 17.6216 22.718 17.5017 22.718 17.262V15.8234C22.718 15.3439 22.3578 14.9847 22.1191 14.8649C21.7584 14.6246 21.6396 14.5047 21.5192 14.5047C21.3988 14.3848 21.3988 14.2649 21.5192 14.145C21.6391 14.0257 21.7584 14.0257 21.7584 13.9053C21.7584 13.9053 21.7584 13.9053 21.638 13.9053C21.5176 13.9053 20.7994 14.0262 20.4397 14.145C19.8403 14.2649 19.2409 14.5047 18.7608 14.8649C18.4012 15.1041 18.1614 15.4637 18.1614 15.9443C18.1614 16.183 18.1614 16.9028 18.1614 17.3829C18.1614 17.5039 18.1614 17.6227 18.0416 17.5039C17.6819 17.5039 17.9217 17.9834 17.9217 18.1022C17.9217 18.342 18.0416 18.4624 18.1609 18.7021C18.1609 18.8226 18.2813 18.8226 18.2813 18.8226C18.4012 19.1822 18.5211 19.9015 18.7608 20.2611C18.7608 20.2611 18.8813 20.3815 18.8813 20.5009C18.8813 20.7407 18.8813 21.1003 18.7608 21.3401C18.7608 21.3401 18.7608 21.4605 18.641 21.4605C18.4012 21.4605 18.4012 21.5804 18.4012 21.8201C18.4012 22.1798 18.1614 22.54 18.0416 22.54C17.4421 22.7786 15.6445 23.3786 15.0445 23.4985C14.6849 23.6194 14.565 23.7382 14.4451 23.8581L13.8457 25.2967C16.2428 25.2967 17.4421 26.7353 19.9597 27.2148H21.1585C23.676 26.8551 25.4737 25.2967 27.1525 25.2967L26.5542 23.856Z" fill="#643A97"/>
</svg>
