<svg width="30" height="30" viewBox="0 0 30 30" fill="none" xmlns="http://www.w3.org/2000/svg">
<path d="M15 21.875C8.75 21.875 3.75 15 3.75 15C3.75 15 8.75 8.125 15 8.125C21.25 8.125 26.25 15 26.25 15C26.25 15 21.25 21.875 15 21.875Z" stroke="#643A97" stroke-width="2" stroke-miterlimit="10" stroke-linecap="round" stroke-linejoin="round"/>
<path d="M15 18.125C16.75 18.125 18.125 16.75 18.125 15C18.125 13.25 16.75 11.875 15 11.875C13.25 11.875 11.875 13.25 11.875 15C11.875 16.75 13.25 18.125 15 18.125Z" stroke="#643A97" stroke-width="2" stroke-miterlimit="10" stroke-linecap="round" stroke-linejoin="round"/>
<path d="M3.75 21.25V26.25H8.75" stroke="#643A97" stroke-width="2" stroke-linecap="round" stroke-linejoin="round"/>
<path d="M21.25 3.75H26.25V8.75" stroke="#643A97" stroke-width="2" stroke-linecap="round" stroke-linejoin="round"/>
<path d="M8.75 3.75H3.75V8.75" stroke="#643A97" stroke-width="2" stroke-linecap="round" stroke-linejoin="round"/>
<path d="M26.25 21.25V26.25H21.25" stroke="#643A97" stroke-width="2" stroke-linecap="round" stroke-linejoin="round"/>
<path d="M2.5 2.5L27.5 27.5" stroke="#643A97" stroke-width="2" stroke-miterlimit="10" stroke-linecap="round" stroke-linejoin="round"/>
</svg>
