<svg width="30" height="30" viewBox="0 0 30 30" fill="none" xmlns="http://www.w3.org/2000/svg">
<path d="M3.75 16.25C3.75 22.5 8.75 27.5 15 27.5C21.25 27.5 26.25 22.5 26.25 16.25C26.25 10 21.25 5 15 5H13.75" stroke="#643A97" stroke-width="2" stroke-miterlimit="10" stroke-linecap="round" stroke-linejoin="round"/>
<path d="M13.75 5L16.25 3.4375V6.5625L13.75 5Z" stroke="#643A97" stroke-width="1.5"/>
<path d="M9.00924 8.75C10.1334 10.4163 11.7572 12.339 14.0055 12.5954C15.8791 12.8517 16.8783 11.9545 18.0025 12.5954C19.7511 13.749 20.5006 17.5944 18.627 19.6452C17.253 21.3116 14.7549 21.5679 13.1311 20.927C10.0085 19.7734 8.01 14.7744 9.00924 8.75Z" stroke="#643A97" stroke-width="1.5" stroke-miterlimit="10" stroke-linecap="round" stroke-linejoin="round"/>
<path d="M15.6289 17.2097C15.6289 17.2097 18.2519 20.1578 21.2497 20.6706" stroke="#643A97" stroke-width="1.5" stroke-miterlimit="10" stroke-linecap="round" stroke-linejoin="round"/>
</svg>
