<svg width="54" height="54" viewBox="0 0 54 54" fill="none" xmlns="http://www.w3.org/2000/svg">
<circle cx="27" cy="27" r="27" fill="#643A97"/>
<path d="M19.7507 14.5833L15.584 14.5833C15.0317 14.5833 14.584 15.031 14.584 15.5833L14.584 19.75" stroke="white" stroke-width="2" stroke-linecap="round" stroke-linejoin="round"/>
<path d="M35.2493 40.4167L39.416 40.4167C39.9683 40.4167 40.416 39.969 40.416 39.4167L40.416 35.25" stroke="white" stroke-width="2" stroke-linecap="round" stroke-linejoin="round"/>
<path d="M40.4167 19.7502V15.5835C40.4167 15.0312 39.969 14.5835 39.4167 14.5835L35.25 14.5835" stroke="white" stroke-width="2" stroke-linecap="round" stroke-linejoin="round"/>
<path d="M14.5833 35.2498L14.5833 39.4165C14.5833 39.9688 15.031 40.4165 15.5833 40.4165L19.75 40.4165" stroke="white" stroke-width="2" stroke-linecap="round" stroke-linejoin="round"/>
<path d="M33.9577 35.1543V33.9583C33.9577 30.3915 31.0662 27.5 27.4993 27.5C23.9325 27.5 21.041 30.3915 21.041 33.9583V35.1543C21.041 35.2072 21.0839 35.25 21.1367 35.25H33.862C33.9148 35.25 33.9577 35.2072 33.9577 35.1543Z" stroke="white" stroke-width="2" stroke-linecap="round" stroke-linejoin="round"/>
<circle cx="27.5" cy="23.625" r="3.875" stroke="white" stroke-width="2" stroke-linecap="round"/>
</svg>
