<svg width="54" height="54" viewBox="0 0 54 54" fill="none" xmlns="http://www.w3.org/2000/svg">
<circle cx="27" cy="27" r="27" fill="#FFB3B3"/>
<path d="M26.8535 40.4165C32.0202 40.4165 36.541 37.8332 36.541 32.6665" stroke="black" stroke-width="2" stroke-miterlimit="10" stroke-linecap="round" stroke-linejoin="round"/>
<path d="M26.8535 40.4165C27.9236 40.4165 28.791 39.5491 28.791 38.479C28.791 37.409 27.9236 36.5415 26.8535 36.5415C25.7835 36.5415 24.916 37.409 24.916 38.479C24.916 39.5491 25.7835 40.4165 26.8535 40.4165Z" stroke="black" stroke-width="1.5" stroke-miterlimit="10" stroke-linecap="round" stroke-linejoin="round"/>
<path d="M33.959 32.6667H36.6257C38.0064 32.6667 39.1257 31.548 39.1257 30.1673C39.1257 28.8192 39.1257 27.3366 39.1257 26.1242C39.1257 24.7435 38.0064 23.625 36.6257 23.625H33.959V32.6667Z" stroke="black" stroke-width="2" stroke-miterlimit="10" stroke-linecap="round" stroke-linejoin="round"/>
<path d="M21.041 32.6667H18.3743C16.9936 32.6667 15.8743 31.548 15.8743 30.1673C15.8743 28.8192 15.8743 27.3366 15.8743 26.1242C15.8743 24.7435 16.9936 23.625 18.3743 23.625H21.041V32.6667Z" stroke="black" stroke-width="2" stroke-miterlimit="10" stroke-linecap="round" stroke-linejoin="round"/>
<path d="M36.5423 23.6252C36.5423 17.8127 32.6673 14.5835 27.5007 14.5835C22.334 14.5835 18.459 17.8127 18.459 23.6252" stroke="black" stroke-width="2" stroke-miterlimit="10" stroke-linecap="round" stroke-linejoin="round"/>
</svg>
