<svg width="30" height="30" viewBox="0 0 30 30" fill="none" xmlns="http://www.w3.org/2000/svg">
<path d="M11.25 2.5V6.25" stroke="#643A97" stroke-width="2" stroke-linecap="round" stroke-linejoin="round"/>
<path d="M18.75 2.5V6.25" stroke="#643A97" stroke-width="2" stroke-linecap="round" stroke-linejoin="round"/>
<path d="M11.25 23.75V27.5" stroke="#643A97" stroke-width="2" stroke-linecap="round" stroke-linejoin="round"/>
<path d="M18.75 23.75V27.5" stroke="#643A97" stroke-width="2" stroke-linecap="round" stroke-linejoin="round"/>
<path d="M27.5 11.25H23.75" stroke="#643A97" stroke-width="2" stroke-linecap="round" stroke-linejoin="round"/>
<path d="M27.5 18.75H23.75" stroke="#643A97" stroke-width="2" stroke-linecap="round" stroke-linejoin="round"/>
<path d="M6.25 11.25H2.5" stroke="#643A97" stroke-width="2" stroke-linecap="round" stroke-linejoin="round"/>
<path d="M6.25 18.75H2.5" stroke="#643A97" stroke-width="2" stroke-linecap="round" stroke-linejoin="round"/>
<path d="M21.25 23.75H8.75C7.375 23.75 6.25 22.625 6.25 21.25V8.75C6.25 7.375 7.375 6.25 8.75 6.25H21.25C22.625 6.25 23.75 7.375 23.75 8.75V21.25C23.75 22.625 22.625 23.75 21.25 23.75Z" stroke="#643A97" stroke-width="2" stroke-linecap="round" stroke-linejoin="round"/>
<path d="M18.125 11.875H11.875V18.125H18.125V11.875Z" stroke="#643A97" stroke-width="2" stroke-linecap="round" stroke-linejoin="round"/>
</svg>
