<svg width="32" height="32" viewBox="0 0 32 32" fill="none" xmlns="http://www.w3.org/2000/svg">
<path d="M8 8C10.181 5.819 11.2715 4.7285 12.4479 4.14556C14.6861 3.03643 17.3139 3.03643 19.5521 4.14556C20.7285 4.7285 21.819 5.819 24 8C26.181 10.181 27.2715 11.2715 27.8544 12.4479C28.9636 14.6861 28.9636 17.3139 27.8544 19.5521C27.2715 20.7285 26.181 21.819 24 24C21.819 26.181 20.7285 27.2715 19.5521 27.8544C17.3139 28.9636 14.6861 28.9636 12.4479 27.8544C11.2715 27.2715 10.181 26.181 8 24C5.819 21.819 4.7285 20.7285 4.14556 19.5521C3.03643 17.3139 3.03643 14.6861 4.14556 12.4479C4.7285 11.2715 5.819 10.181 8 8Z" fill="url(#paint0_linear_255_376)"/>
<path d="M12.6699 4.59375C14.6372 3.6189 16.9253 3.55809 18.9326 4.41113L19.3301 4.59375C20.4144 5.13108 21.437 6.144 23.6465 8.35352C25.7178 10.4248 26.7376 11.453 27.2998 12.4668L27.4062 12.6699C28.3811 14.6372 28.4419 16.9253 27.5889 18.9326L27.4062 19.3301C26.8689 20.4144 25.856 21.437 23.6465 23.6465C21.5752 25.7178 20.547 26.7376 19.5332 27.2998L19.3301 27.4062C17.3628 28.3811 15.0747 28.4419 13.0674 27.5889L12.6699 27.4062C11.5856 26.8689 10.563 25.856 8.35352 23.6465C6.28221 21.5752 5.26236 20.547 4.7002 19.5332L4.59375 19.3301C3.6189 17.3628 3.55809 15.0747 4.41113 13.0674L4.59375 12.6699C5.13108 11.5856 6.144 10.563 8.35352 8.35352C10.4248 6.28221 11.453 5.26236 12.4668 4.7002L12.6699 4.59375Z" stroke="black" stroke-opacity="0.1"/>
<path d="M9.33398 16.4934L13.4207 20.5801" stroke="black" stroke-width="1.5" stroke-miterlimit="10" stroke-linecap="round" stroke-linejoin="round"/>
<path d="M13.4199 20.5799L22.6666 11.3333" stroke="black" stroke-width="1.5" stroke-miterlimit="10" stroke-linecap="round" stroke-linejoin="round"/>
<defs>
<linearGradient id="paint0_linear_255_376" x1="16" y1="0" x2="16" y2="32" gradientUnits="userSpaceOnUse">
<stop stop-color="white" stop-opacity="0.02"/>
<stop offset="1" stop-color="white" stop-opacity="0.5"/>
</linearGradient>
</defs>
</svg>
