<svg width="30" height="30" viewBox="0 0 30 30" fill="none" xmlns="http://www.w3.org/2000/svg">
<path d="M22.5 25C23.1904 25 23.75 24.4404 23.75 23.75C23.75 23.0596 23.1904 22.5 22.5 22.5C21.8096 22.5 21.25 23.0596 21.25 23.75C21.25 24.4404 21.8096 25 22.5 25Z" stroke="#643A97" stroke-width="2" stroke-miterlimit="10" stroke-linecap="round" stroke-linejoin="round"/>
<path d="M12.5 25C13.1904 25 13.75 24.4404 13.75 23.75C13.75 23.0596 13.1904 22.5 12.5 22.5C11.8096 22.5 11.25 23.0596 11.25 23.75C11.25 24.4404 11.8096 25 12.5 25Z" stroke="#643A97" stroke-width="2" stroke-miterlimit="10" stroke-linecap="round" stroke-linejoin="round"/>
<path d="M27.5 5L25 18.75H10L7.5 5" stroke="#643A97" stroke-width="2" stroke-miterlimit="10" stroke-linecap="round" stroke-linejoin="round"/>
<path d="M2.5 5H7.5" stroke="#643A97" stroke-width="2" stroke-miterlimit="10" stroke-linecap="round" stroke-linejoin="round"/>
<path d="M13.75 13.75H21.25" stroke="#643A97" stroke-width="2" stroke-miterlimit="10" stroke-linecap="round" stroke-linejoin="round"/>
<path d="M12.5 8.75H22.5" stroke="#643A97" stroke-width="2" stroke-miterlimit="10" stroke-linecap="round" stroke-linejoin="round"/>
</svg>
