<svg width="386" height="38" viewBox="0 0 386 38" fill="none" xmlns="http://www.w3.org/2000/svg">
<path d="M244.343 13.5388C249.1 15.3187 251.883 17.5692 255.727 19.6225C255.729 19.6236 255.732 19.6247 255.734 19.6257C256.275 19.9217 256.822 20.2129 257.428 20.5204C261.9 22.6008 270.138 26.9592 278.605 28.8471C289.877 29.8266 300.123 30.3857 304.509 28.6531C305.435 28.3329 306.116 28.1219 308.642 26.608C310.553 25.3771 313.676 24.4962 316.659 23.3161C318.133 22.7392 320.185 21.4955 322.465 20.2555C325.837 18.3601 331.353 14.4599 337.076 12.1641C342.686 9.68805 349.276 6.59391 356.241 5.67713C360.244 5.05417 365.055 5.10998 368.567 5.97396C372.234 6.74841 374.976 7.45918 377.911 7.94029C378.956 8.1373 379.99 8.34882 381.017 8.57337C381.531 8.68544 382.044 8.80142 382.542 8.91574C382.668 8.94453 382.793 8.97314 382.908 8.9994C383.026 9.02589 382.781 8.9714 383.257 9.0777C383.412 8.98726 385.529 10.1392 385.686 11.7321C385.882 13.1852 385.471 13.6214 385.335 13.9536C384.989 14.5637 384.822 14.6712 384.677 14.8278C383.687 15.7127 383.408 15.7044 382.87 15.9447C378.975 17.0287 377.001 16.1197 374.694 15.5149C370.336 14.0996 366.824 12.353 362.874 11.0786C355.844 8.34004 347.703 9.14742 337.609 8.03868C330.465 7.45808 323.073 7.48763 315.656 7.43654C314.718 7.4332 313.797 7.43996 312.868 7.4606C306.488 7.54979 299.928 8.68942 292.929 10.3016C280.302 13.382 269.995 14.8557 258.929 17.5717C254.547 18.5929 249.962 19.5404 244.996 20.4539C237.152 21.7434 226.299 24.8129 214.966 27.3941C214.004 27.6098 213.044 27.8215 212.083 28.0302C212.078 28.0313 212.073 28.0323 212.068 28.0334C201.919 30.3321 191.216 32.4144 183.651 32.1448C171.595 32.3131 167.055 32.3812 163.277 32.4805C161.857 32.5148 160.535 32.5464 158.972 32.5713C153.321 32.6614 144.794 32.6486 136.151 32.6329C136.118 32.6329 136.085 32.6329 136.052 32.633C134.616 32.6304 133.46 32.348 133.466 32.0024C133.473 31.6568 134.641 31.3785 136.077 31.3811C140.653 31.3892 145.123 31.3968 149.122 31.3894C149.328 31.0923 150.407 30.8671 151.697 30.8687C154.931 30.8656 164.823 30.674 180.319 30.1996C179.254 30.1547 178.37 30.1082 177.588 30.0632C176.678 30.0104 175.977 29.9637 175.368 29.9236C174.123 29.8398 173.28 29.7841 171.798 29.7461C168.37 29.7099 162.971 29.712 157.294 29.7076C155.853 29.7064 154.7 29.4255 154.705 29.0801C154.713 28.7345 155.877 28.4554 157.317 28.4563C157.345 28.4562 157.373 28.4562 157.401 28.4562C163.024 28.4605 168.59 28.458 172.176 28.4965C173.083 28.5064 173.867 28.5188 174.462 28.5304C174.938 28.5397 175.517 28.5524 175.85 28.5709C175.893 28.5733 175.977 28.5783 176.075 28.5861C176.077 28.5863 176.079 28.5865 176.08 28.5867C176.137 28.591 176.411 28.6127 176.714 28.6617C176.776 28.6716 176.91 28.6937 177.065 28.7298C177.104 28.7324 177.144 28.735 177.184 28.7376C177.729 28.7738 178.304 28.8102 178.902 28.8449C181.27 28.9421 185.139 29.3065 192.8 29.0404C199.788 28.2421 211.907 25.8118 226.536 21.9028C225.541 22.1561 224.544 22.4057 223.549 22.6423C221.036 23.232 218.496 23.7969 215.956 24.3295C214.98 24.5341 214.021 24.7306 213.038 24.9289C211.462 25.2468 209.865 25.5579 208.278 25.8773C207.205 26.0925 206.13 26.3094 205.057 26.5238C205.055 26.5243 205.052 26.5249 205.05 26.5254C203.563 26.8226 202.071 27.1177 200.569 27.3996C200.044 27.4974 199.524 27.5927 199.008 27.6852C196.964 28.0444 194.919 28.4124 192.675 28.5987C192.409 28.6132 192.112 28.6198 191.888 28.6214C191.643 28.6237 191.409 28.6225 191.188 28.6192C190.99 28.6165 190.796 28.6123 190.621 28.6076C190.597 28.607 190.572 28.6065 190.548 28.6059C190.34 28.601 190.148 28.5958 189.961 28.5906C189.779 28.5853 189.593 28.5802 189.418 28.5758C189.416 28.5759 189.414 28.5759 189.413 28.576C189.222 28.5719 189.088 28.5683 188.888 28.5653C188.633 28.5616 188.425 28.5587 188.168 28.5569C187.923 28.5549 187.657 28.5539 187.395 28.5534C187.124 28.553 186.87 28.5528 186.587 28.5533C186.32 28.5535 186.033 28.5541 185.759 28.5546C185.487 28.5552 185.191 28.5564 184.914 28.557C184.63 28.5577 184.337 28.5582 184.052 28.5586C183.371 28.5598 182.745 28.4979 182.274 28.3853C181.795 28.2728 181.541 28.1196 181.541 27.9584C181.543 27.7972 181.801 27.6398 182.282 27.5184C182.753 27.3972 183.383 27.3224 184.059 27.3072C184.24 27.3031 184.414 27.2988 184.603 27.2944C184.713 27.2919 184.823 27.2895 184.931 27.287C185.213 27.2802 185.527 27.2724 185.814 27.2656C186.118 27.2584 186.402 27.2519 186.717 27.2448C187.02 27.238 187.332 27.231 187.637 27.2248C187.951 27.2184 188.267 27.2125 188.588 27.2073C188.895 27.2022 189.265 27.1971 189.573 27.1941C189.81 27.1914 190.097 27.1899 190.326 27.1887C190.582 27.1868 190.812 27.186 191.048 27.184C191.274 27.1826 191.502 27.1803 191.705 27.177C191.728 27.1766 191.75 27.1761 191.772 27.1757C191.951 27.1725 192.122 27.1682 192.282 27.1619C192.459 27.155 192.614 27.1464 192.773 27.1341C192.953 27.1198 193.069 27.1098 193.208 27.0944C194.979 26.8616 197.385 26.418 199.614 25.9566C199.895 25.8986 200.175 25.8405 200.454 25.7821C201.927 25.4723 203.404 25.1475 204.884 24.8191C205.96 24.5804 207.038 24.3393 208.121 24.099C209.714 23.7439 211.316 23.3979 212.894 23.0437C213.875 22.824 214.839 22.6049 215.814 22.3781C218.354 21.7869 220.935 21.1577 223.437 20.5063C225.948 19.8507 228.468 19.0775 231.211 18.4263C234.136 17.7683 236.597 17.4259 239.28 16.9257C241.215 16.5807 243.26 16.2758 245.082 16.0195C246.068 15.8788 247.032 15.7404 247.98 15.6012C247.983 15.6008 247.986 15.6004 247.99 15.6C248.822 15.4778 249.643 15.3545 250.457 15.2276C252.202 14.956 253.912 14.6687 255.618 14.3569C257.325 14.0468 259.002 13.7069 260.734 13.3535C262.45 13.0052 264.192 12.6582 265.916 12.3197C267.646 11.9801 269.354 11.6501 271.137 11.3084C273.482 10.8573 275.821 10.4203 278.177 9.94693C280.495 9.48353 282.847 8.9197 285.2 8.34826C286.022 8.14723 286.846 7.94277 287.67 7.73477C287.673 7.73399 287.676 7.7332 287.68 7.73242C289.203 7.34809 290.734 6.95091 292.27 6.55332C294.577 5.92725 297.328 5.36199 299.521 4.90609C301.873 4.37061 304.441 3.80604 306.989 3.47308C309.542 3.12913 312.153 2.93457 314.79 2.84677C317.106 2.77876 319.411 2.73224 321.687 2.70021C322.284 2.69207 322.889 2.68507 323.488 2.67986C326.339 2.65494 329.104 2.65889 331.854 2.71523C334.572 2.76369 337.489 2.92556 340.129 3.16476C342.786 3.36511 345.506 3.44693 348.288 3.5068C351.078 3.57305 353.896 3.60753 356.856 3.94659C359.818 4.26708 362.723 5.05666 365.513 5.90874C367.071 6.38891 368.71 6.96239 370.213 7.51747C371.741 8.07967 373.222 8.65517 374.632 9.14508C375.207 9.34475 375.767 9.52821 376.312 9.68639C377.106 9.91728 377.865 10.093 378.568 10.1844C379.167 10.2626 379.687 10.2772 380.177 10.2404C380.475 10.2183 380.652 10.188 380.634 10.1791C380.486 10.4193 381.435 9.04293 379.809 11.122C379.672 11.3301 378.92 13.3053 380.753 14.685C382.145 15.4373 381.655 15.0292 381.709 15.0984C381.663 15.0892 381.617 15.0801 381.571 15.0707C381.478 15.0521 381.39 15.0345 381.301 15.0166C381.126 14.9812 380.955 14.9471 380.784 14.9131C380.443 14.8456 380.106 14.7805 379.772 14.7179C379.105 14.5928 378.449 14.4777 377.803 14.3729C376.455 14.1482 375.419 14.0477 373.914 13.812C370.474 13.2254 368.522 12.7477 366.369 12.3798C365.949 12.3073 365.525 12.2396 365.088 12.1784C362.624 11.7686 360.454 12.0456 357.87 12.3624C355.359 12.7029 352.982 13.2634 350.571 14.0651C348.182 14.8568 345.776 15.8631 343.316 16.9407C340.832 18.0296 338.356 19.0984 335.969 20.2069C333.41 21.4274 331.968 22.0316 329.409 23.9583C327.999 24.915 326.473 25.7792 325.103 26.5174C324.115 27.0507 323.159 27.5504 322.25 28.0374C321.882 28.2328 321.51 28.4443 321.03 28.6838C319.434 29.4784 317.973 29.9759 316.643 30.4331C315.317 30.8849 314.133 31.2826 313.186 31.7275C312.392 32.0784 311.257 32.8639 310.02 33.5571C308.731 34.283 307.575 34.8443 306.064 35.4145C305.078 35.7838 304.097 36.0827 303.116 36.3274C301.639 36.6951 300.181 36.9386 298.713 37.0998C297.265 37.2602 295.748 37.3321 294.395 37.3494C293.963 37.3572 293.523 37.3655 293.086 37.3734C291.771 37.398 290.441 37.4223 289.132 37.4441C287.819 37.4656 286.506 37.4842 285.194 37.4926C283.874 37.5006 282.565 37.4994 281.202 37.4666C278.89 37.4112 276.545 37.2043 274.391 36.7119C272.145 36.2067 270.423 35.4403 268.84 34.8707C268.54 34.7584 268.24 34.6457 267.939 34.5329C266.646 34.0463 265.379 33.5637 264.124 33.0812C262.578 32.4867 261.064 31.8982 259.538 31.2915C258.024 30.6885 256.498 30.0702 254.968 29.4135C253.41 28.7463 251.915 28.0426 250.363 27.2592C248.829 26.4854 247.307 25.6664 245.735 24.8418C244.191 24.0317 242.61 23.2488 241.325 22.8224C239.64 22.2977 237.36 21.413 235.615 20.664C233.81 19.8967 232.236 19.2377 230.93 18.9128C229.521 18.6304 226.805 17.8352 225.118 17.2662C223.287 16.6634 221.478 16.0576 219.78 15.5211C217.032 14.6495 214.292 13.8631 211.504 13.1491C208.662 12.4093 206.268 11.9346 202.885 11.1335C199.986 10.3625 197.524 9.82818 194.737 9.41972C191.984 9.01202 189.161 8.73039 186.3 8.51478C185.676 8.4678 185.025 8.42276 184.41 8.38304C182.205 8.24002 179.911 8.13518 177.673 8.0505C177.658 8.04983 177.643 8.04915 177.627 8.04847C174.732 7.9399 171.865 7.86105 168.974 7.79966C167.907 7.77729 166.889 7.75818 165.852 7.74152C164.809 7.72482 163.792 7.71112 162.763 7.6999C161.73 7.68868 160.706 7.6804 159.697 7.67519C158.675 7.67 157.681 7.6678 156.676 7.66958C155.756 7.67106 154.842 7.67647 153.843 7.68345C153.752 7.68409 153.661 7.68475 153.57 7.68542C152.477 7.69336 151.236 7.70066 150.079 7.70188C147.021 7.70406 144.036 7.72347 141.005 7.7644C137.982 7.80563 134.946 7.86693 131.916 7.96278C130.728 8.00033 129.545 8.04347 128.359 8.09298C126.514 8.17005 124.669 8.26305 122.834 8.37985C119.802 8.56716 116.863 8.85226 113.681 9.16175C110.47 9.47373 107.218 9.609 104.173 9.77983C101.122 9.93554 98.2661 10.2479 95.2814 10.6858C91.9846 11.1708 88.6003 11.7931 85.1676 12.3725C81.7519 12.954 78.2897 13.506 74.879 14.0208C71.4566 14.5394 68.0492 15.0426 64.6491 15.552C61.2471 16.0619 57.8503 16.5749 54.477 17.1168C52.454 17.4422 50.4825 17.7712 48.4565 18.144C47.3835 18.386 46.3675 18.6148 45.3876 18.8359C38.0778 20.4144 33.5359 21.8819 26.6666 24.147C26.0272 24.3607 25.4965 24.5475 24.8664 24.7698C24.7456 24.8123 24.6214 24.856 24.4881 24.9028C23.6484 25.1977 22.7023 25.5271 21.365 25.9637C18.6981 26.8337 14.5934 28.0955 9.19352 29.4413C7.82208 29.7831 6.86887 29.7235 7.06246 29.3121C7.21131 29.0194 7.8501 28.6415 8.71788 28.3153C7.09145 28.7697 5.47587 29.2179 3.8498 29.6571C3.18806 29.8357 2.56278 29.9373 2.06928 29.9456C1.68307 29.9372 0.831831 29.9372 0.776665 29.7529C1.60221 29.5171 1.50183 29.3043 2.04383 29.0548C2.51031 28.8093 3.14173 28.5617 3.77693 28.3753C5.49188 27.8717 7.1868 27.3623 8.88378 26.8489C10.5828 26.3348 12.2693 25.8195 13.9607 25.3003C15.6513 24.7812 17.3473 24.2576 19.0357 23.7346C20.724 23.2115 22.4116 22.6872 24.1076 22.1588C25.8162 21.6266 27.4879 21.1041 29.1793 20.5752C30.207 20.2533 31.2232 19.9368 32.2256 19.6374C32.5954 19.5269 32.9633 19.418 33.3285 19.3122C33.6232 19.2267 33.924 19.1409 34.2344 19.0538C37.4724 18.1329 40.7898 17.4352 44.1536 16.7559C47.5293 16.077 50.8813 15.3847 54.2559 14.7813C57.6341 14.1692 61.0229 13.5874 64.4152 13.0097C67.8065 12.4324 71.196 11.8631 74.5983 11.2788C77.9886 10.6985 81.3988 10.0858 84.7781 9.44298C87.3995 8.94701 89.9828 8.43338 92.5634 7.96402C93.574 7.75544 94.5742 7.55924 95.562 7.37967C98.4427 6.8528 101.307 6.43165 104.204 6.15626C99.0545 6.49138 95.03 7.25814 91.1499 8.03479C90.6322 8.13925 90.1104 8.24594 89.5992 8.35104C84.3423 9.44146 79.2046 10.4793 72.2994 11.5833C52.6576 14.6978 41.3052 16.741 34.4798 18.5172C27.642 20.3788 24.6275 21.3067 21.8066 21.9084C17.8204 22.7908 10.2522 24.9291 6.47329 26.0693C5.09857 26.4849 3.91735 26.5441 3.81538 26.2139C3.73324 25.8778 4.75885 25.2797 6.13237 24.8645C10.1174 23.6621 18.2964 21.3374 23.0488 20.284C25.1629 19.8399 27.5469 19.0944 34.3711 17.2513C41.2138 15.4926 52.4635 13.4599 72.1446 10.3401C78.8044 9.27377 83.7102 8.29074 88.9255 7.20728C89.4374 7.10184 89.9503 6.99611 90.4718 6.89022C90.475 6.88963 90.4783 6.88904 90.4815 6.88845C95.2624 5.89327 100.557 5.03433 107.728 4.6626C124.153 2.77268 146.501 2.45843 151.776 2.33634C152.816 2.30973 153.819 2.28162 154.876 2.25369C158.94 2.15767 163.843 1.9874 174.909 2.14826C177.329 2.19009 180.17 2.25816 183.266 2.40723C187.931 2.47194 192.465 2.69739 196.422 3.20118C199.801 3.59729 203.119 4.34008 205.87 4.80225C206.744 4.93453 207.617 5.07052 208.482 5.21181C210.597 5.55856 212.689 5.93964 214.733 6.37935C216.355 6.72771 218.057 7.1093 219.852 7.54781C223.102 8.32153 226.746 9.4367 230.463 10.4249C234.002 10.8974 239.431 13.4996 243.606 14.9879C249.672 17.3074 253.312 20.2721 257.438 22.0879C261.538 23.9925 265.594 25.6126 269.298 27.0977C263.859 24.8905 259.663 23.0807 256.474 21.4437C255.859 21.1256 255.303 20.8255 254.747 20.5171C250.825 18.3702 248.139 16.2819 243.961 14.7309C228.211 7.83087 221.094 6.99125 213.851 5.20516C211.912 4.79783 209.757 4.40222 207.439 4.02634C203.212 3.37376 197.504 2.13099 191.8 1.7942C186.438 1.3825 180.481 1.35007 174.2 1.42424C174.198 1.42418 174.195 1.42413 174.193 1.42407C172.978 1.43872 171.722 1.45694 170.48 1.47884C162.858 1.61303 154.856 1.853 147.067 2.07251C146.236 2.09613 145.243 2.12862 144.091 2.16851C137.489 2.44676 125.834 2.62933 111.736 3.98263C108.651 4.20552 105.428 4.23055 101.712 4.41329C100.579 4.47024 99.3959 4.56269 98.1736 4.68409C92.8752 5.18004 86.5845 6.39721 78.2125 7.7431C71.2945 8.8586 62.8375 10.1349 54.0543 11.6331C49.7254 12.3655 45.3483 13.2338 41.0188 14.0787C27.7811 16.7632 16.43 21.0689 4.75632 24.3418C4.75391 24.3425 4.75149 24.3433 4.74908 24.344C3.36985 24.7481 2.23215 24.7813 2.17638 24.4375C2.12558 24.0928 3.189 23.4961 4.56259 23.0931C16.2366 19.8207 27.4856 15.5342 40.8671 12.8326C45.139 12.0001 49.4916 11.1358 53.8179 10.4036C62.6621 8.89439 71.2434 7.60047 78.2006 6.47611C86.6908 5.1068 93.1173 3.862 98.5706 3.38184C99.8555 3.25749 101.14 3.17618 102.297 3.12417C106 2.96404 109.007 2.93014 111.893 2.71519C125.559 1.40432 136.867 1.21049 143.486 0.930643C144.659 0.889078 145.7 0.854913 146.581 0.829505C154.227 0.610671 162.112 0.369626 169.737 0.227654C170.982 0.205014 172.201 0.185131 173.432 0.169315C173.435 0.169166 173.437 0.169017 173.44 0.168869C179.716 0.0876096 185.804 0.097152 191.325 0.496415C196.796 0.828505 202.399 1.79473 206.233 2.54124C208.604 2.90464 210.978 3.31999 213.26 3.78654C221.01 5.63031 228.585 6.63027 244.343 13.5388ZM11.2164 27.6134C14.5655 26.7494 17.2613 25.9512 19.2595 25.3232C17.5491 25.8142 15.8483 26.2999 14.1349 26.787C13.1613 27.0638 12.1967 27.3368 11.2164 27.6134ZM183.623 3.67775C183.08 3.66981 182.486 3.66183 181.94 3.65834C183.502 3.71787 185.062 3.79395 186.605 3.88964C188.507 4.00777 190.412 4.15744 192.316 4.35496C189.309 4.02267 186.359 3.8168 183.623 3.67775ZM243.216 16.1778C234.741 12.4901 227.028 10.8143 220.769 9.09357C218.925 8.62739 217.12 8.20602 215.342 7.81334C214.612 7.6525 213.871 7.49783 213.118 7.34806C217.415 8.44591 221.296 9.65954 224.449 10.7202C233.775 13.7023 239.066 16.0376 243.632 17.8081C245.002 18.387 246.228 19.062 247.454 19.7646C248.496 20.2932 249.56 20.8607 250.634 21.4237C252.135 22.2123 253.76 23.0346 255.331 23.7517C256.911 24.4748 258.546 25.1415 260.168 25.7925C261.802 26.4469 263.43 27.0791 265.056 27.7026C266.585 28.2882 268.111 28.8649 269.595 29.4185C269.68 29.45 269.764 29.4813 269.848 29.5128C271.399 30.0819 273.001 30.7158 274.3 31.1152C275.656 31.5199 276.847 31.7041 277.919 31.8112C279.255 31.9423 280.659 31.9974 282.06 32.0232C283.456 32.048 284.864 32.0442 286.269 32.0323C287.678 32.0201 289.074 31.9986 290.482 31.976C290.93 31.9685 291.414 31.9607 291.86 31.953C292.066 31.9495 292.28 31.9459 292.487 31.9423C289.725 31.9088 286.891 31.8755 283.968 31.7606C279.65 31.5792 275.836 31.287 271.107 29.161C262.883 26.1068 255.091 21.9959 243.216 16.1778ZM329.703 17.2311C328.575 17.8144 327.039 19.0916 325.304 20.2107C324.878 20.487 324.419 20.772 323.928 21.0651C323.94 21.0585 323.952 21.0515 323.964 21.0449C325.198 20.3525 326.292 19.6786 327.389 18.8788C329.8 17.1378 332.143 16.1743 334.499 15.0842C336.867 14.02 339.222 13.0219 341.58 12.0079C343.958 10.9915 346.387 10.0002 348.887 9.18878C351.411 8.36609 353.999 7.75697 356.624 7.39174C357.461 7.27413 358.3 7.1793 359.141 7.1036C357.263 7.23418 355.304 7.47727 353.261 7.89897C351.629 8.23465 349.949 8.68579 348.225 9.24716C347.567 9.46095 346.771 9.73047 345.86 10.063C342.225 11.4527 336.848 13.432 329.703 17.2311ZM379.786 9.75045C380.378 9.8644 380.969 9.98409 381.547 10.106C381.957 10.1924 382.372 10.283 382.755 10.3642C382.739 10.5051 382.851 9.74555 384.146 11.4017C384.764 13.0725 384.07 13.2599 384.019 13.4984C383.756 13.8702 383.642 13.9297 383.524 14.0352C383.298 14.2181 383.138 14.3122 382.974 14.4053C382.651 14.5843 382.349 14.7067 382.028 14.8056C380.524 15.1887 379.926 15.0764 378.913 15.0375C377.6 14.9437 376.383 14.6633 375.257 14.336C374.784 14.1982 374.312 14.0466 373.865 13.8945C373.107 13.6362 372.382 13.3666 371.667 13.0942C374.157 14.0483 376.746 15.1442 380.004 15.15C380.789 15.1293 381.701 15.1271 382.763 14.6313C383.028 14.5014 383.257 14.3962 383.644 14.0787C383.75 13.984 383.855 13.907 384.064 13.6296C384.158 13.4709 384.34 13.3563 384.471 12.6271C384.839 11.8897 383.163 10.0875 382.939 10.2893C382.568 10.2053 382.702 10.2358 382.586 10.2093C382.271 10.1374 381.947 10.0628 381.622 9.98962C380.32 9.69524 378.997 9.41791 377.656 9.1656C377.586 9.15237 377.515 9.13946 377.443 9.12611C378.244 9.33008 379.027 9.53917 379.786 9.75045Z" fill="url(#paint0_linear_300_443)"/>
<defs>
<linearGradient id="paint0_linear_300_443" x1="-41" y1="-58.5" x2="665" y2="162.5" gradientUnits="userSpaceOnUse">
<stop offset="0.346154" stop-color="#3E0F77"/>
<stop offset="0.649038" stop-color="#FFB3B3"/>
<stop offset="0.846154" stop-color="#211331"/>
</linearGradient>
</defs>
</svg>
