<svg width="18" height="17" viewBox="0 0 18 17" fill="none" xmlns="http://www.w3.org/2000/svg">
<path fill-rule="evenodd" clip-rule="evenodd" d="M9.11934 6.36769C8.59829 6.69994 7.99297 6.87599 7.375 6.875C7.3241 6.87499 7.2732 6.87381 7.22235 6.87144L7.23017 6.875L5.92977 10.6717C6.80117 11.2547 7.375 12.2479 7.375 13.375C7.375 15.1699 5.91991 16.625 4.125 16.625C2.33009 16.625 0.875 15.1699 0.875 13.375C0.875 11.5801 2.33009 10.125 4.125 10.125C4.21336 10.125 4.3008 10.1286 4.38734 10.1355L5.6203 6.36109C4.72087 5.783 4.125 4.77367 4.125 3.625C4.125 1.83009 5.58009 0.375 7.375 0.375C9.16991 0.375 10.625 1.83009 10.625 3.625C10.625 4.18461 10.4835 4.71131 10.2344 5.17119L12.2067 7.33528C12.7107 7.03319 13.2874 6.87407 13.875 6.875C15.6699 6.875 17.125 8.33009 17.125 10.125C17.125 11.9199 15.6699 13.375 13.875 13.375C12.0801 13.375 10.625 11.9199 10.625 10.125C10.6241 9.57976 10.7611 9.04315 11.0231 8.565L9.11934 6.36769ZM4.125 15C5.02251 15 5.75 14.2725 5.75 13.375C5.75 12.4775 5.02251 11.75 4.125 11.75C3.22749 11.75 2.5 12.4775 2.5 13.375C2.5 14.2725 3.22749 15 4.125 15ZM7.375 5.25C8.27251 5.25 9 4.52251 9 3.625C9 2.72749 8.27251 2 7.375 2C6.47749 2 5.75 2.72749 5.75 3.625C5.75 4.52251 6.47749 5.25 7.375 5.25ZM13.875 11.75C14.7725 11.75 15.5 11.0225 15.5 10.125C15.5 9.22749 14.7725 8.5 13.875 8.5C12.9775 8.5 12.25 9.22749 12.25 10.125C12.25 11.0225 12.9775 11.75 13.875 11.75Z" fill="url(#paint0_linear_136_1115)"/>
<defs>
<linearGradient id="paint0_linear_136_1115" x1="9" y1="0.375" x2="9" y2="16.625" gradientUnits="userSpaceOnUse">
<stop offset="0.06" stop-color="#682CB2"/>
<stop offset="1" stop-color="#4A1F7F"/>
</linearGradient>
</defs>
</svg>
