<svg width="19" height="20" viewBox="0 0 19 20" fill="none" xmlns="http://www.w3.org/2000/svg">
<g clip-path="url(#clip0_136_1119)">
<path d="M7.12467 12.375C6.68744 12.375 6.33301 12.7294 6.33301 13.1667C6.33301 13.6039 6.68744 13.9583 7.12467 13.9583C7.5619 13.9583 7.91634 13.6039 7.91634 13.1667C7.91634 12.7294 7.5619 12.375 7.12467 12.375Z" fill="url(#paint0_linear_136_1119)"/>
<path d="M11.083 13.1667C11.083 12.7294 11.4374 12.375 11.8747 12.375C12.3119 12.375 12.6663 12.7294 12.6663 13.1667C12.6663 13.6039 12.3119 13.9583 11.8747 13.9583C11.4374 13.9583 11.083 13.6039 11.083 13.1667Z" fill="url(#paint1_linear_136_1119)"/>
<path fill-rule="evenodd" clip-rule="evenodd" d="M9.5 1.2915C8.62552 1.2915 7.91667 2.00039 7.91667 2.87484C7.91667 3.46089 8.23507 3.97259 8.70833 4.24635V6.0415H4.75C3.43833 6.0415 2.375 7.10483 2.375 8.4165V16.3332C2.375 17.6449 3.43833 18.7082 4.75 18.7082H14.25C15.5617 18.7082 16.625 17.6449 16.625 16.3332V8.4165C16.625 7.10483 15.5617 6.0415 14.25 6.0415H10.2917V4.24635C10.7649 3.97259 11.0833 3.46089 11.0833 2.87484C11.0833 2.00039 10.3745 1.2915 9.5 1.2915ZM3.95833 8.4165C3.95833 7.97928 4.31278 7.62484 4.75 7.62484H5.84406L6.98977 9.91624C7.25797 10.4527 7.80622 10.7915 8.40592 10.7915H10.5941C11.1938 10.7915 11.742 10.4527 12.0102 9.91624L13.1559 7.62484H14.25C14.6872 7.62484 15.0417 7.97928 15.0417 8.4165V16.3332C15.0417 16.7704 14.6872 17.1248 14.25 17.1248H4.75C4.31278 17.1248 3.95833 16.7704 3.95833 16.3332V8.4165ZM10.5941 9.20817L11.3857 7.62484H7.61427L8.40592 9.20817H10.5941Z" fill="url(#paint2_linear_136_1119)"/>
<path d="M0.791667 11.5835C0.354441 11.5835 0 11.9379 0 12.3752V13.9585C0 14.3957 0.354441 14.7502 0.791667 14.7502C1.22889 14.7502 1.58333 14.3957 1.58333 13.9585V12.3752C1.58333 11.9379 1.22889 11.5835 0.791667 11.5835Z" fill="url(#paint3_linear_136_1119)"/>
<path d="M17.417 12.3752C17.417 11.9379 17.7714 11.5835 18.2087 11.5835C18.6459 11.5835 19.0003 11.9379 19.0003 12.3752V13.9585C19.0003 14.3957 18.6459 14.7502 18.2087 14.7502C17.7714 14.7502 17.417 14.3957 17.417 13.9585V12.3752Z" fill="url(#paint4_linear_136_1119)"/>
</g>
<defs>
<linearGradient id="paint0_linear_136_1119" x1="7.12467" y1="12.375" x2="7.12467" y2="13.9583" gradientUnits="userSpaceOnUse">
<stop offset="0.06" stop-color="#682CB2"/>
<stop offset="1" stop-color="#4A1F7F"/>
</linearGradient>
<linearGradient id="paint1_linear_136_1119" x1="11.8747" y1="12.375" x2="11.8747" y2="13.9583" gradientUnits="userSpaceOnUse">
<stop offset="0.06" stop-color="#682CB2"/>
<stop offset="1" stop-color="#4A1F7F"/>
</linearGradient>
<linearGradient id="paint2_linear_136_1119" x1="9.5" y1="1.2915" x2="9.5" y2="18.7082" gradientUnits="userSpaceOnUse">
<stop offset="0.06" stop-color="#682CB2"/>
<stop offset="1" stop-color="#4A1F7F"/>
</linearGradient>
<linearGradient id="paint3_linear_136_1119" x1="0.791667" y1="11.5835" x2="0.791667" y2="14.7502" gradientUnits="userSpaceOnUse">
<stop offset="0.06" stop-color="#682CB2"/>
<stop offset="1" stop-color="#4A1F7F"/>
</linearGradient>
<linearGradient id="paint4_linear_136_1119" x1="18.2087" y1="11.5835" x2="18.2087" y2="14.7502" gradientUnits="userSpaceOnUse">
<stop offset="0.06" stop-color="#682CB2"/>
<stop offset="1" stop-color="#4A1F7F"/>
</linearGradient>
<clipPath id="clip0_136_1119">
<rect width="19" height="19" fill="white" transform="translate(0 0.5)"/>
</clipPath>
</defs>
</svg>
