<svg width="75" height="75" viewBox="0 0 75 75" fill="none" xmlns="http://www.w3.org/2000/svg">
<rect width="75" height="75" fill="#200047"/>
<path d="M44.083 30.4848H47.8322C48.3096 32.2559 49.9265 33.5633 51.843 33.5633C54.1339 33.5633 55.9977 31.696 55.9977 29.4009C55.9977 27.1058 54.1339 25.2385 51.843 25.2385C49.9264 25.2385 48.3096 26.5459 47.8322 28.317H44.0839C43.5604 24.8366 40.5561 22.1599 36.9396 22.1599C34.3233 22.1599 32.0273 23.5608 30.7593 25.6533L27.2871 24.2066C27.5249 22.3877 26.533 20.5586 24.7637 19.8214C23.7397 19.3947 22.6111 19.3928 21.5856 19.8161C20.5582 20.2402 19.7577 21.0399 19.3315 22.0681C18.4532 24.1867 19.4587 26.627 21.5729 27.508C22.0871 27.7222 22.6276 27.8294 23.1683 27.8293C23.7043 27.8293 24.2406 27.724 24.7511 27.5132C25.4351 27.2308 26.0177 26.7812 26.4571 26.2093L29.9272 27.6552C29.7885 28.2145 29.7143 28.7992 29.7143 29.4008C29.7143 29.8192 29.75 30.2292 29.8183 30.6284L25.8624 31.9458C25.5333 31.6631 25.1587 31.4304 24.7466 31.2591C23.7222 30.8334 22.5935 30.8325 21.5684 31.2568C19.4521 32.1326 18.4407 34.5705 19.3139 36.6913C19.7377 37.7204 20.5363 38.5221 21.5626 38.9486C22.0758 39.1619 22.6151 39.2686 23.1545 39.2686C23.6918 39.2686 24.2292 39.1627 24.7407 38.951C26.7578 38.1163 27.7698 35.8627 27.1044 33.8171L30.5029 32.6853C31.1984 34.0484 32.3115 35.1633 33.6732 35.8578L33.673 39.4452H32.5342C30.7293 39.4452 29.261 40.914 29.261 42.7194L29.2605 48.5554C29.2605 48.7558 29.316 48.9525 29.421 49.1232L32.4772 54.0935C33.3898 55.5779 35.0389 56.5 36.7809 56.5H48.0584C50.9811 56.5 53.359 54.1211 53.359 51.1972V42.9952C53.359 41.1894 51.8904 39.7204 50.0853 39.7204C49.5422 39.7204 49.0296 39.8533 48.5783 40.0884C48.0217 39.0731 46.9427 38.3833 45.7058 38.3833C45.1628 38.3833 44.6501 38.5163 44.1988 38.7513C43.6421 37.7361 42.5632 37.0462 41.3263 37.0462C40.9384 37.0462 40.566 37.1141 40.2204 37.2386V35.8496C42.2526 34.8069 43.7303 32.8287 44.083 30.4848ZM51.843 27.4064C52.9385 27.4064 53.8298 28.3011 53.8298 29.4009C53.8298 30.5007 52.9386 31.3954 51.843 31.3954C50.7475 31.3954 49.8563 30.5007 49.8563 29.4009C49.8563 28.3011 50.7476 27.4064 51.843 27.4064ZM25.0025 24.4311C24.7984 24.9236 24.4153 25.3065 23.9239 25.5093C23.4343 25.7114 22.8956 25.7105 22.4066 25.5068C21.3939 25.0848 20.9127 23.9146 21.334 22.8983C21.5382 22.4058 21.9213 22.0228 22.4128 21.8199C22.6565 21.7193 22.9124 21.6691 23.1683 21.6691C23.4264 21.6691 23.6844 21.7202 23.9299 21.8226C24.9428 22.2446 25.4239 23.4147 25.0025 24.4311ZM23.9118 36.9479C23.4224 37.1504 22.8836 37.15 22.3946 36.9467C21.9037 36.7427 21.5215 36.3588 21.3185 35.8658C20.8996 34.8484 21.3836 33.6794 22.3974 33.2598C22.6416 33.1588 22.8981 33.1082 23.1546 33.1082C23.4121 33.1082 23.6696 33.1591 23.9145 33.2609C24.4055 33.465 24.7877 33.8488 24.9907 34.3418C25.4096 35.3593 24.9256 36.5283 23.9118 36.9479ZM40.2203 42.6131L40.2204 40.3209C40.2204 39.7106 40.7165 39.214 41.3262 39.214C41.9359 39.214 42.4319 39.7106 42.4319 40.3209V43.9501C42.4319 44.5487 42.9173 45.034 43.5159 45.034C44.1145 45.034 44.5998 44.5487 44.5998 43.9501V41.658C44.5998 41.0476 45.0959 40.5511 45.7057 40.5511C46.3154 40.5511 46.8114 41.0477 46.8114 41.658V45.9557C46.8114 46.5544 47.2968 47.0397 47.8954 47.0397C48.494 47.0397 48.9793 46.5544 48.9793 45.9557V42.9951C48.9793 42.3847 49.4754 41.8882 50.0852 41.8882C50.6949 41.8882 51.191 42.3848 51.191 42.9951V51.1972C51.191 52.9258 49.7857 54.3321 48.0583 54.3321H36.7809C35.7864 54.3321 34.8449 53.8056 34.3238 52.958L31.4283 48.2488L31.4288 42.7194C31.4288 42.1094 31.9246 41.613 32.5341 41.613H33.6729V42.6129L33.6733 44.9159C33.6733 44.925 33.6733 44.934 33.6736 44.943V44.9555H33.6739C33.6949 45.6667 34.2423 46.0498 34.7575 46.0498H34.758C35.276 46.0496 35.8268 45.666 35.8413 44.9549C35.8413 44.9541 35.8414 44.9532 35.8414 44.9521C35.8415 44.9443 35.8416 44.9365 35.8416 44.9287L35.8419 44.1333C35.8419 43.486 35.8419 42.3767 35.8417 40.529C35.8417 40.5161 35.8414 40.5033 35.841 40.4905L35.8414 32.0974C35.8414 31.4873 36.3372 30.9909 36.9477 30.9909C37.5567 30.9909 38.0523 31.4867 38.0523 32.0961L38.0525 42.6131C38.0525 43.2117 38.5378 43.697 39.1365 43.697C39.735 43.697 40.2203 43.2117 40.2203 42.6131ZM40.2201 33.2571V32.096C40.2201 30.2913 38.752 28.8231 36.9467 28.8231C35.1419 28.8231 33.6735 30.2919 33.6735 32.0974L33.6734 33.27C32.5787 32.3387 31.8822 30.9502 31.8822 29.401C31.8822 26.6037 34.151 24.3279 36.9397 24.3279C39.7284 24.3279 41.9971 26.6037 41.9971 29.401C41.9971 30.9433 41.3066 32.3261 40.2201 33.2571Z" fill="white"/>
</svg>
