<svg width="75" height="75" viewBox="0 0 75 75" fill="none" xmlns="http://www.w3.org/2000/svg">
<rect width="75" height="75" fill="#200047"/>
<path d="M52.168 39.0566H48.616C48.2139 34.9625 45.4662 31.4044 41.5304 30.0153C41.0491 29.8509 40.5129 30.058 40.2753 30.5149L38.1124 34.737L35.9191 30.4479C35.6875 29.997 35.1636 29.7777 34.6823 29.9362C30.6186 31.2705 27.7917 34.8529 27.3895 39.0384H23.8255C23.2589 39.0384 22.7959 39.4953 22.7959 40.068V52.7893C22.7959 53.3559 23.2528 53.8189 23.8255 53.8189H25.3547V54.9704C25.3547 55.537 25.8117 56 26.3843 56C26.9571 56 27.4139 55.543 27.4139 54.9704V53.8189H48.5855V54.9704C48.5855 55.537 49.0425 56 49.6151 56C50.1817 56 50.6447 55.543 50.6447 54.9704V53.8189H52.1739C52.7405 53.8189 53.2035 53.362 53.2035 52.7893V40.0802C53.1977 39.5136 52.7285 39.0566 52.168 39.0566ZM34.5057 32.2147L37.1925 37.4726C37.3692 37.8137 37.7225 38.0331 38.1125 38.0331C38.4964 38.0331 38.8558 37.8138 39.0325 37.4726L41.6767 32.294C44.3574 33.5612 46.1974 36.1262 46.5508 39.0506H29.449C29.8084 36.0469 31.7276 33.4454 34.5057 32.2147ZM51.1445 51.7535H51.1323V51.7656H24.8613V49.4138H26.2626C26.8292 49.4138 27.2922 48.9569 27.2922 48.3842C27.2922 47.8176 26.8352 47.3546 26.2626 47.3546H24.8613V45.5268H28.6874C29.254 45.5268 29.717 45.0699 29.717 44.4972C29.717 43.9306 29.2601 43.4676 28.6874 43.4676H24.8613V41.1159H51.1445V51.7535Z" fill="white"/>
<path d="M37.9969 19C35.4745 19 33.4336 21.0471 33.4336 23.5633C33.4336 26.0795 35.4746 28.1327 37.9969 28.1327C40.5191 28.1327 42.5602 26.0856 42.5602 23.5694C42.5602 21.0532 40.5191 19 37.9969 19ZM37.9969 26.0735C36.6139 26.0735 35.4868 24.9463 35.4868 23.5634C35.4868 22.1805 36.614 21.0533 37.9969 21.0533C39.3798 21.0533 40.507 22.1805 40.507 23.5634C40.507 24.9463 39.3798 26.0735 37.9969 26.0735Z" fill="white"/>
</svg>
