<svg width="17" height="17" viewBox="0 0 17 17" fill="none" xmlns="http://www.w3.org/2000/svg">
<path fill-rule="evenodd" clip-rule="evenodd" d="M13.75 3.25V13.75H3.25V3.25H13.75ZM7.66941 5.875H6.64683L4.7054 11.125H5.62795L5.99448 10.0987H8.31851L8.67717 11.125H9.65529L7.66941 5.875ZM11.2929 5.875H10.3741V11.125H11.2929V5.875ZM7.15037 6.75582L8.06561 9.37499H6.24968L7.15037 6.75582ZM14.625 11.125H16.375V12.875H14.625V11.125ZM4.125 14.625H5.875V16.375H4.125V14.625ZM7.625 14.625H9.375V16.375H7.625V14.625ZM4.125 0.625H5.875V2.375H4.125V0.625ZM11.125 14.625H12.875V16.375H11.125V14.625ZM7.625 0.625H9.375V2.375H7.625V0.625ZM11.125 0.625H12.875V2.375H11.125V0.625ZM14.625 7.625H16.375V9.375H14.625V7.625ZM0.625 11.125H2.375V12.875H0.625V11.125ZM14.625 4.125H16.375V5.875H14.625V4.125ZM0.625 7.625H2.375V9.375H0.625V7.625ZM0.625 4.125H2.375V5.875H0.625V4.125Z" fill="url(#paint0_linear_136_1102)"/>
<defs>
<linearGradient id="paint0_linear_136_1102" x1="8.83275" y1="-5.75647" x2="24.872" y2="7.4067" gradientUnits="userSpaceOnUse">
<stop stop-color="#643A97"/>
<stop offset="1" stop-color="#2B045B"/>
</linearGradient>
</defs>
</svg>
