<svg width="45" height="45" viewBox="0 0 45 45" fill="none" xmlns="http://www.w3.org/2000/svg">
<path d="M21.3422 27.75V19.6313C21.3422 18.3188 22.4109 17.25 23.7234 17.25C25.0359 17.25 26.1047 18.3188 26.1047 19.6313V27.75V22.6312C26.1047 21.3187 27.1734 20.25 28.4859 20.25C29.7984 20.25 30.8672 21.3187 30.8672 22.6312V27.75V25.5375C30.8672 24.2812 31.9359 23.25 33.2484 23.25C34.5609 23.25 35.6297 24.2812 35.6297 25.5375V33C35.6297 37.575 31.8234 41.25 27.0797 41.25H25.0547C23.0297 41.25 21.2484 40.5562 19.8234 39.525L10.0922 30.2438C9.13594 29.325 9.13594 27.75 10.0922 26.8313C11.0484 25.9125 12.4734 26.1188 13.4109 27.0375L16.5984 30.0188V13.5375C16.5984 12.2812 17.6672 11.25 18.9797 11.25C20.2922 11.25 21.3609 12.2812 21.3609 13.5375L21.3422 27.75Z" stroke="#643A97" stroke-width="1.5" stroke-linecap="round" stroke-linejoin="round"/>
<path d="M28.3496 13.125C28.3496 7.94733 24.1523 3.75 18.9746 3.75C13.7969 3.75 9.59961 7.94733 9.59961 13.125" stroke="#643A97" stroke-width="1.5" stroke-linecap="round" stroke-linejoin="round"/>
</svg>
