<svg width="45" height="46" viewBox="0 0 45 46" fill="none" xmlns="http://www.w3.org/2000/svg">
<g clip-path="url(#clip0_136_1043)">
<path d="M37.749 23H7.25098C3.61046 23 0.65918 25.9513 0.65918 29.5918V38.249C0.65918 41.8895 3.61046 44.8408 7.25098 44.8408H16.8188C17.9843 44.8408 19.1021 44.3778 19.9261 43.5537L20.9463 42.5335C21.8043 41.6754 23.1956 41.6754 24.0536 42.5335L25.0738 43.5537C25.8979 44.3778 27.0157 44.8408 28.1812 44.8408H37.749C41.3895 44.8408 44.3408 41.8895 44.3408 38.249V29.5918C44.3408 25.9513 41.3895 23 37.749 23Z" stroke="#643A97" stroke-width="2" stroke-miterlimit="10" stroke-linecap="round" stroke-linejoin="round"/>
<path d="M3.38965 31.4345V29.9535C3.38965 27.6209 5.28062 25.73 7.61314 25.73H17.5138" stroke="#643A97" stroke-width="2" stroke-miterlimit="10" stroke-linecap="round" stroke-linejoin="round"/>
<path d="M19.2505 40.3831C19.1704 40.4536 19.0923 40.5269 19.0162 40.6029L18.2808 41.3383C17.7863 41.8327 17.1156 42.1106 16.4164 42.1106H7.61314C5.28053 42.1106 3.38965 40.2196 3.38965 37.8871V34.5107" stroke="#643A97" stroke-width="2" stroke-miterlimit="10" stroke-linecap="round" stroke-linejoin="round"/>
<path d="M27.4863 25.73H37.387C39.7196 25.73 41.6105 27.6209 41.6105 29.9535V37.8871C41.6105 40.2197 39.7195 42.1106 37.387 42.1106H28.5838C27.8845 42.1106 27.2139 41.8328 26.7194 41.3383L26.0407 40.6596C25.9454 40.5643 25.8468 40.473 25.7451 40.3858" stroke="#643A97" stroke-width="2" stroke-miterlimit="10" stroke-linecap="round" stroke-linejoin="round"/>
<path d="M29.335 16.4728L30.4233 15.8445C30.721 15.6727 30.9043 15.355 30.9043 15.0113V6.41804C30.9043 6.24621 30.8585 6.0808 30.7754 5.93701" stroke="#643A97" stroke-width="2" stroke-miterlimit="10" stroke-linecap="round" stroke-linejoin="round"/>
<path d="M22.5 20.2699C22.6661 20.2699 22.8322 20.227 22.981 20.141L26.6395 18.0288" stroke="#643A97" stroke-width="2" stroke-miterlimit="10" stroke-linecap="round" stroke-linejoin="round"/>
<path d="M22.4999 10.7145L30.775 5.93685C30.692 5.79297 30.5717 5.67063 30.4229 5.58467L22.9809 1.28805C22.6832 1.11622 22.3164 1.11622 22.0188 1.28805L14.5768 5.58467C14.428 5.67063 14.3077 5.79297 14.2246 5.93685" stroke="#643A97" stroke-width="2" stroke-miterlimit="10" stroke-linecap="round" stroke-linejoin="round"/>
<path d="M14.2246 5.93652C14.1416 6.0804 14.0957 6.24572 14.0957 6.41755V15.0108C14.0957 15.3545 14.279 15.6722 14.5767 15.844L22.0187 20.1406C22.1675 20.2266 22.3336 20.2696 22.4997 20.2696V10.7143L14.2246 5.93652Z" stroke="#643A97" stroke-width="2" stroke-miterlimit="10" stroke-linecap="round" stroke-linejoin="round"/>
<path d="M8.81517 7.33632C9.67975 8.2009 10.2145 9.39533 10.2145 10.7147C10.2145 13.3533 8.07539 15.4923 5.43683 15.4923C2.79826 15.4923 0.65918 13.3533 0.65918 10.7147C0.65918 8.07601 2.79826 5.93701 5.43683 5.93701C5.65383 5.93701 5.86749 5.95151 6.07685 5.97955" stroke="#643A97" stroke-width="2" stroke-miterlimit="10" stroke-linecap="round" stroke-linejoin="round"/>
<path d="M34.9482 13.506L39.1757 5.63391C39.3415 5.32515 39.7842 5.32515 39.95 5.63391L44.1775 13.506" stroke="#643A97" stroke-width="2" stroke-miterlimit="10" stroke-linecap="round" stroke-linejoin="round"/>
<path d="M39.5628 16.516C42.2014 16.516 44.3404 15.4465 44.3404 14.1271C44.3404 12.8078 42.2014 11.7383 39.5628 11.7383C36.9242 11.7383 34.7852 12.8078 34.7852 14.1271C34.7852 15.4465 36.9242 16.516 39.5628 16.516Z" stroke="#643A97" stroke-width="2" stroke-miterlimit="10" stroke-linecap="round" stroke-linejoin="round"/>
<path d="M36.1504 31.1904L38.8805 33.9205L36.1504 36.6505" stroke="#643A97" stroke-width="2" stroke-miterlimit="10" stroke-linecap="round" stroke-linejoin="round"/>
<path d="M8.84929 31.1904L6.11914 33.9205L8.84929 36.6505" stroke="#643A97" stroke-width="2" stroke-miterlimit="10" stroke-linecap="round" stroke-linejoin="round"/>
<path d="M22.3369 39.1623C22.3752 39.161 22.4137 39.1602 22.4522 39.1598C23.6644 39.1484 24.83 39.6007 25.7453 40.3856L30.4231 37.6848C30.7208 37.513 30.9041 37.1954 30.9041 36.8516V28.2584C30.9041 28.0865 30.8583 27.9211 30.7752 27.7773" stroke="#643A97" stroke-width="2" stroke-miterlimit="10" stroke-linecap="round" stroke-linejoin="round"/>
<path d="M22.5 32.5552L30.7751 27.7776C30.6921 27.6337 30.5718 27.5113 30.4229 27.4254L27.4863 25.73H17.5134L14.5768 27.4254C14.428 27.5113 14.3077 27.6337 14.2246 27.7776" stroke="#643A97" stroke-width="2" stroke-miterlimit="10" stroke-linecap="round" stroke-linejoin="round"/>
<path d="M14.0957 28.2585V36.8517C14.0957 37.1954 14.279 37.5131 14.5767 37.6849L19.25 40.383C20.1373 39.6022 21.2612 39.1711 22.4519 39.1598C22.4679 39.1596 22.4839 39.1596 22.4998 39.1596V32.555L14.2246 27.7773C14.1416 27.9212 14.0957 28.0865 14.0957 28.2585Z" stroke="#643A97" stroke-width="2" stroke-miterlimit="10" stroke-linecap="round" stroke-linejoin="round"/>
</g>
<defs>
<clipPath id="clip0_136_1043">
<rect width="45" height="45" fill="white" transform="translate(0 0.5)"/>
</clipPath>
</defs>
</svg>
