<svg width="15" height="15" viewBox="0 0 15 15" fill="none" xmlns="http://www.w3.org/2000/svg">
<path d="M14.0667 14.0667H4.73333C2.67147 14.0667 1 12.3952 1 10.3333V1" stroke="url(#paint0_linear_136_1108)" stroke-width="1.2" stroke-linecap="round" stroke-linejoin="round"/>
<path d="M5.75 8.26514L5.76367 8.27783V8.27881L5.85742 8.37158L4.09277 10.1938L3.91602 10.0171L5.67871 8.19678L5.75 8.26514ZM9.97461 8.6665C9.79162 8.71476 9.60091 8.72296 9.41504 8.68799L9.41992 8.68213L9.60059 8.45068C9.63871 8.45248 9.67678 8.4501 9.71484 8.44775L9.97461 8.6665ZM8.54004 7.85693L8.47168 7.94775L8.45898 7.96338L8.38477 8.05713L8.31543 8.00146L8.4082 7.8833L8.45605 7.8208L8.46973 7.80127L8.54004 7.85693ZM12.96 5.39795L10.9141 7.88818L10.8574 7.84131L10.7402 7.70947L12.96 5.00732V5.39795ZM6.7041 7.25146C6.93642 7.15114 7.19355 7.12293 7.44141 7.16943L7.43848 7.17432L7.25488 7.40869C7.15227 7.40409 7.04967 7.41462 6.9502 7.43994L6.7041 7.25146ZM14.4004 6.50537H14.1602V5.82861L14.4004 5.53564V6.50537ZM12.6729 3.46631L12.46 3.72607H11.1533V3.46631H12.6729Z" fill="black" stroke="url(#paint1_linear_136_1108)" stroke-width="1.2"/>
<defs>
<linearGradient id="paint0_linear_136_1108" x1="7.80939" y1="-4.29425" x2="21.116" y2="6.6263" gradientUnits="userSpaceOnUse">
<stop stop-color="#643A97"/>
<stop offset="1" stop-color="#2B045B"/>
</linearGradient>
<linearGradient id="paint1_linear_136_1108" x1="9.19019" y1="-0.536749" x2="17.7874" y2="9.65461" gradientUnits="userSpaceOnUse">
<stop stop-color="#643A97"/>
<stop offset="1" stop-color="#2B045B"/>
</linearGradient>
</defs>
</svg>
