<svg width="75" height="75" viewBox="0 0 75 75" fill="none" xmlns="http://www.w3.org/2000/svg">
<rect width="75" height="75" fill="#200047"/>
<g clip-path="url(#clip0_136_625)">
<path d="M55.0781 20.9061C54.5946 20.5933 54.0417 20.4041 53.4679 20.3551C52.8941 20.306 52.3171 20.3987 51.7875 20.6249L34.4344 27.4593C34.0235 27.6265 33.5842 27.7124 33.1406 27.7124H22.0312C21.0988 27.7124 20.2046 28.0828 19.5453 28.7421C18.886 29.4014 18.5156 30.2956 18.5156 31.228V31.5093H15V39.9468H18.5156V40.3124C18.5377 41.2301 18.9178 42.1028 19.5747 42.7439C20.2316 43.3851 21.1133 43.7439 22.0312 43.7436L26.25 52.6874C26.5357 53.2897 26.9854 53.7992 27.5476 54.1574C28.1098 54.5155 28.7616 54.7079 29.4281 54.7124H31.2C32.1275 54.705 33.0145 54.3313 33.6678 53.6728C34.321 53.0143 34.6875 52.1243 34.6875 51.1968V44.0811L51.7875 50.9155C52.2081 51.0829 52.6567 51.1688 53.1094 51.1686C53.8117 51.1573 54.4956 50.9424 55.0781 50.5499C55.5407 50.2375 55.9223 49.8196 56.1913 49.3305C56.4603 48.8414 56.6089 48.2953 56.625 47.7374V23.803C56.6224 23.2307 56.4802 22.6677 56.2106 22.1629C55.941 21.658 55.5523 21.2266 55.0781 20.9061ZM31.1719 31.228V40.3124H22.0312V31.228H31.1719ZM31.1719 51.1968H29.4L25.9406 43.7436H31.1719V51.1968ZM35.7281 40.7343C35.3942 40.5636 35.046 40.4224 34.6875 40.3124V31.0311C35.0426 30.9579 35.3907 30.8544 35.7281 30.7218L53.1094 23.803V47.653L35.7281 40.7343ZM56.7094 32.2124V39.2436C57.6418 39.2436 58.536 38.8732 59.1953 38.2139C59.8546 37.5546 60.225 36.6604 60.225 35.728C60.225 34.7956 59.8546 33.9014 59.1953 33.2421C58.536 32.5828 57.6418 32.2124 56.7094 32.2124Z" fill="white"/>
</g>
<defs>
<clipPath id="clip0_136_625">
<rect width="45" height="45" fill="white" transform="translate(15 15)"/>
</clipPath>
</defs>
</svg>
