<svg width="44" height="44" viewBox="0 0 44 44" fill="none" xmlns="http://www.w3.org/2000/svg">
<path d="M38.5 12.8333L27.5 31.1666L14.6667 14.6666L5.5 27.4999" stroke="#643A97" stroke-width="3" stroke-linecap="round" strokeLinejoin="round"/>
<path d="M5.50033 29.3334C6.51285 29.3334 7.33366 28.5126 7.33366 27.5001C7.33366 26.4876 6.51285 25.6667 5.50033 25.6667C4.4878 25.6667 3.66699 26.4876 3.66699 27.5001C3.66699 28.5126 4.4878 29.3334 5.50033 29.3334Z" stroke="#643A97" stroke-width="3" stroke-linecap="round" strokeLinejoin="round"/>
<path d="M14.6663 16.4999C15.6789 16.4999 16.4997 15.6791 16.4997 14.6666C16.4997 13.6541 15.6789 12.8333 14.6663 12.8333C13.6538 12.8333 12.833 13.6541 12.833 14.6666C12.833 15.6791 13.6538 16.4999 14.6663 16.4999Z" stroke="#643A97" stroke-width="3" stroke-linecap="round" strokeLinejoin="round"/>
<path d="M27.5003 32.9999C28.5128 32.9999 29.3337 32.1791 29.3337 31.1666C29.3337 30.1541 28.5128 29.3333 27.5003 29.3333C26.4878 29.3333 25.667 30.1541 25.667 31.1666C25.667 32.1791 26.4878 32.9999 27.5003 32.9999Z" stroke="#643A97" stroke-width="3" stroke-linecap="round" strokeLinejoin="round"/>
<path d="M38.5003 14.6667C39.5128 14.6667 40.3337 13.8459 40.3337 12.8333C40.3337 11.8208 39.5128 11 38.5003 11C37.4878 11 36.667 11.8208 36.667 12.8333C36.667 13.8459 37.4878 14.6667 38.5003 14.6667Z" stroke="#643A97" stroke-width="3" stroke-linecap="round" strokeLinejoin="round"/>
</svg>
