<svg width="75" height="75" viewBox="0 0 75 75" fill="none" xmlns="http://www.w3.org/2000/svg">
<rect width="75" height="75" fill="#200047"/>
<g clip-path="url(#clip0_136_607)">
<mask id="mask0_136_607" style="mask-type:luminance" maskUnits="userSpaceOnUse" x="17" y="17" width="41" height="41">
<path d="M17 17H58V58H17V17Z" fill="white"/>
</mask>
<g mask="url(#mask0_136_607)">
<path d="M20.69 16.9718C21.1598 16.9726 21.6139 17.1407 21.971 17.4459C22.3281 17.7511 22.5648 18.1735 22.6388 18.6374L34.2559 21.5701V19.9199C34.2559 19.8163 34.2763 19.7138 34.316 19.6181C34.3557 19.5224 34.4138 19.4355 34.4871 19.3623C34.5604 19.2891 34.6475 19.2311 34.7432 19.1916C34.839 19.152 34.9416 19.1318 35.0451 19.1319H39.9549C40.0585 19.1318 40.1611 19.152 40.2568 19.1916C40.3526 19.2311 40.4396 19.2891 40.5129 19.3623C40.5862 19.4355 40.6444 19.5224 40.684 19.6181C40.7237 19.7138 40.7441 19.8163 40.7441 19.9199V23.2076L52.7469 26.225C53.0242 25.8649 53.4171 25.6114 53.8594 25.5071C54.3017 25.4029 54.7665 25.4542 55.1754 25.6524C55.5843 25.8506 55.9125 26.1837 56.1047 26.5955C56.2968 27.0073 56.3412 27.4728 56.2303 27.9135C56.1195 28.3542 55.8602 28.7433 55.4961 29.0153C55.1321 29.2872 54.6854 29.4254 54.2313 29.4067C53.7773 29.3879 53.3436 29.2132 53.0032 28.9121C52.6628 28.611 52.4366 28.2019 52.3625 27.7535L40.7441 24.8207C40.7432 24.98 40.6936 25.1351 40.602 25.2654C40.5104 25.3957 40.3812 25.4949 40.2316 25.5497L47.7833 43.0272C47.8919 43.2783 47.9172 43.5575 47.8557 43.824C47.7941 44.0905 47.6489 44.3303 47.4412 44.5084C45.6147 45.9557 44.0539 47.7098 42.8287 49.6923H43.8051C44.1449 49.6923 44.4708 49.8273 44.711 50.0676C44.9513 50.3079 45.0863 50.6337 45.0863 50.9736V56.7392C45.0863 57.079 44.9513 57.4049 44.711 57.6452C44.4708 57.8855 44.1449 58.0204 43.8051 58.0204H31.1873C30.8475 58.0204 30.5216 57.8855 30.2813 57.6452C30.041 57.4049 29.906 57.079 29.906 56.7392V50.9736C29.906 50.6337 30.041 50.3079 30.2813 50.0676C30.5216 49.8273 30.8475 49.6923 31.1873 49.6923H32.1636C30.9385 47.7098 29.3777 45.9557 27.5511 44.5084C27.3435 44.3303 27.1982 44.0905 27.1367 43.824C27.0751 43.5575 27.1005 43.2783 27.209 43.0272L34.7607 25.5497C34.6107 25.4945 34.4811 25.3947 34.3895 25.2637C34.2979 25.1326 34.2486 24.9767 34.2482 24.8169V23.1832L22.2429 20.1531C22.0373 20.4191 21.7674 20.6284 21.4585 20.7612C21.1495 20.8939 20.8119 20.9457 20.4774 20.9117C20.1429 20.8777 19.8226 20.759 19.5468 20.5669C19.2709 20.3747 19.0485 20.1154 18.9007 19.8134C18.7529 19.5114 18.6844 19.1768 18.7019 18.841C18.7193 18.5053 18.822 18.1795 19.0003 17.8944C19.1786 17.6094 19.4267 17.3745 19.721 17.2119C20.0153 17.0494 20.3461 16.9645 20.6823 16.9653L20.69 16.9718ZM39.1656 20.7015H35.8344V24.0327H39.1656V20.7015ZM32.4711 55.4656H42.5264V52.2625H32.4711V55.4656ZM35.0067 49.7H39.9908C41.1653 47.1755 42.8985 44.9511 45.0594 43.1951L38.1406 27.1795V40.3008C38.7644 40.4571 39.3096 40.8361 39.6733 41.3664C40.0371 41.8967 40.1945 42.5417 40.1157 43.18C40.037 43.8182 39.7276 44.4057 39.2458 44.8317C38.764 45.2576 38.1431 45.4928 37.5 45.4928C36.8569 45.4928 36.236 45.2576 35.7543 44.8317C35.2725 44.4057 34.9631 43.8182 34.8843 43.18C34.8056 42.5417 34.9629 41.8967 35.3267 41.3664C35.6905 40.8361 36.2356 40.4571 36.8594 40.3008V27.1795L29.9407 43.1951C32.1009 44.9509 33.8337 47.1748 35.008 49.6987L35.0067 49.7ZM37.4987 41.5C37.2309 41.5 36.969 41.5794 36.7463 41.7282C36.5236 41.8771 36.35 42.0886 36.2475 42.336C36.145 42.5835 36.1182 42.8558 36.1705 43.1185C36.2227 43.3812 36.3517 43.6225 36.5411 43.8119C36.7305 44.0013 36.9718 44.1303 37.2345 44.1826C37.4972 44.2348 37.7695 44.208 38.017 44.1055C38.2645 44.003 38.476 43.8294 38.6248 43.6067C38.7736 43.384 38.853 43.1221 38.853 42.8543C38.8537 42.676 38.8192 42.4994 38.7516 42.3345C38.6839 42.1696 38.5844 42.0198 38.4587 41.8934C38.333 41.767 38.1837 41.6666 38.0192 41.598C37.8547 41.5294 37.6782 41.4939 37.5 41.4936L37.4987 41.5Z" fill="white"/>
</g>
</g>
<defs>
<clipPath id="clip0_136_607">
<rect width="41" height="41" fill="white" transform="matrix(-1 0 0 1 58 17)"/>
</clipPath>
</defs>
</svg>
