<svg width="31" height="31" viewBox="0 0 31 31" fill="none" xmlns="http://www.w3.org/2000/svg">
<path d="M15.5 22.6038C9.04167 22.6038 3.875 15.4997 3.875 15.4997C3.875 15.4997 9.04167 8.39551 15.5 8.39551C21.9583 8.39551 27.125 15.4997 27.125 15.4997C27.125 15.4997 21.9583 22.6038 15.5 22.6038Z" stroke="#643A97" stroke-width="2" stroke-miterlimit="10" stroke-linecap="round" stroke-linejoin="round"/>
<path d="M15.4997 18.7288C17.308 18.7288 18.7288 17.308 18.7288 15.4997C18.7288 13.6913 17.308 12.2705 15.4997 12.2705C13.6913 12.2705 12.2705 13.6913 12.2705 15.4997C12.2705 17.308 13.6913 18.7288 15.4997 18.7288Z" stroke="#643A97" stroke-width="2" stroke-miterlimit="10" stroke-linecap="round" stroke-linejoin="round"/>
<path d="M3.875 21.958V27.1247H9.04167" stroke="#643A97" stroke-width="2" stroke-linecap="round" stroke-linejoin="round"/>
<path d="M21.958 3.875H27.1247V9.04167" stroke="#643A97" stroke-width="2" stroke-linecap="round" stroke-linejoin="round"/>
<path d="M9.04167 3.875H3.875V9.04167" stroke="#643A97" stroke-width="2" stroke-linecap="round" stroke-linejoin="round"/>
<path d="M27.1247 21.958V27.1247H21.958" stroke="#643A97" stroke-width="2" stroke-linecap="round" stroke-linejoin="round"/>
<path d="M2.5835 2.58301L28.4168 28.4163" stroke="#643A97" stroke-width="2" stroke-miterlimit="10" stroke-linecap="round" stroke-linejoin="round"/>
</svg>
