<svg width="24" height="24" viewBox="0 0 24 24" fill="none" xmlns="http://www.w3.org/2000/svg">
<path d="M10 11C12.2091 11 14 9.20914 14 7C14 4.79086 12.2091 3 10 3C7.79086 3 6 4.79086 6 7C6 9.20914 7.79086 11 10 11Z" stroke="#643A97" stroke-width="1.5" stroke-miterlimit="10" stroke-linecap="round" stroke-linejoin="round"/>
<path d="M16 21H4C2.9 21 2 20.1 2 19C2 16.24 4.24 14 7 14H13C15.76 14 18 16.24 18 19C18 20.1 17.1 21 16 21Z" stroke="#643A97" stroke-width="1.5" stroke-miterlimit="10" stroke-linecap="round" stroke-linejoin="round"/>
<path d="M20 14H20.01" stroke="#643A97" stroke-width="1.5" stroke-miterlimit="10" stroke-linecap="round" stroke-linejoin="round"/>
<path d="M18 8.04C18.04 7.75 18.16 7.21 18.56 6.73C18.66 6.6 18.85 6.37 19.18 6.2C19.58 6 19.94 6 20.1 6C20.28 6 20.71 6.02 21.15 6.31C21.69 6.67 21.86 7.19 21.91 7.35C21.94 7.43 22.1 7.96 21.91 8.56C21.8 8.94 21.6 9.18 21.43 9.39C20.73 10.22 20.11 10.15 20 10.69C19.99 10.71 20 10.82 20 11" stroke="#643A97" stroke-width="1.5" stroke-miterlimit="10" stroke-linecap="round" stroke-linejoin="round"/>
</svg>
