<svg width="17" height="16" viewBox="0 0 17 16" fill="none" xmlns="http://www.w3.org/2000/svg">
<path fillRule="evenodd" clipRule="evenodd" d="M13.75 2.75V13.25H3.25V2.75H13.75ZM7.66941 5.375H6.64683L4.7054 10.625H5.62795L5.99448 9.59867H8.31851L8.67717 10.625H9.65529L7.66941 5.375ZM11.2929 5.375H10.3741V10.625H11.2929V5.375ZM7.15037 6.25582L8.06561 8.87499H6.24968L7.15037 6.25582ZM14.625 10.625H16.375V12.375H14.625V10.625ZM4.125 14.125H5.875V15.875H4.125V14.125ZM7.625 14.125H9.375V15.875H7.625V14.125ZM4.125 0.125H5.875V1.875H4.125V0.125ZM11.125 14.125H12.875V15.875H11.125V14.125ZM7.625 0.125H9.375V1.875H7.625V0.125ZM11.125 0.125H12.875V1.875H11.125V0.125ZM14.625 7.125H16.375V8.875H14.625V7.125ZM0.625 10.625H2.375V12.375H0.625V10.625ZM14.625 3.625H16.375V5.375H14.625V3.625ZM0.625 7.125H2.375V8.875H0.625V7.125ZM0.625 3.625H2.375V5.375H0.625V3.625Z" fill="#643A97"/>
</svg>
