<svg width="19" height="19" viewBox="0 0 19 19" fill="none" xmlns="http://www.w3.org/2000/svg">
<g clip-path="url(#clip0_136_694)">
<path d="M1.58301 7.125C1.58301 8.43917 5.12967 9.5 9.49967 9.5C13.8697 9.5 17.4163 8.43917 17.4163 7.125V3.5625C17.4163 4.655 13.8697 5.54167 9.49967 5.54167C5.12967 5.54167 1.58301 4.655 1.58301 3.5625V7.125Z" stroke="#643A97" stroke-width="1.5" stroke-linecap="round" strokeLinejoin="round"/>
<path d="M9.49967 5.54183C13.8719 5.54183 17.4163 4.65573 17.4163 3.56266C17.4163 2.4696 13.8719 1.5835 9.49967 1.5835C5.12742 1.5835 1.58301 2.4696 1.58301 3.56266C1.58301 4.65573 5.12742 5.54183 9.49967 5.54183Z" stroke="#643A97" stroke-width="1.5" stroke-linecap="round" strokeLinejoin="round"/>
<path d="M17.4163 13.4583V11.0833V7.125C17.4163 8.43917 13.8697 9.5 9.49967 9.5C5.12967 9.5 1.58301 8.43917 1.58301 7.125V11.0833C1.58301 12.3975 5.12967 13.4583 9.49967 13.4583C9.49967 11.2733 11.273 9.5 13.458 9.5C15.643 9.5 17.4163 11.2733 17.4163 13.4583ZM17.4163 13.4583C17.4163 11.2733 15.643 9.5 13.458 9.5C11.273 9.5 9.49967 11.2733 9.49967 13.4583" stroke="#643A97" stroke-width="1.5" stroke-miterlimit="10" stroke-linecap="round" strokeLinejoin="round"/>
<path d="M12.3259 17.2506C12.3259 17.2506 12.318 17.2506 12.3101 17.2506C10.6872 16.7597 9.49967 15.2477 9.49967 13.4585C5.12967 13.4585 1.58301 12.3977 1.58301 11.0835V15.0418C1.58301 16.356 5.12967 17.4168 9.49967 17.4168C10.4972 17.4168 11.4313 17.3614 12.3101 17.2506C12.318 17.2506 12.3259 17.2506 12.3259 17.2506Z" stroke="#643A97" stroke-width="1.5" stroke-miterlimit="10" stroke-linecap="round" strokeLinejoin="round"/>
<path d="M13.4583 17.4167C15.6445 17.4167 17.4167 15.6445 17.4167 13.4583C17.4167 11.2722 15.6445 9.5 13.4583 9.5C11.2722 9.5 9.5 11.2722 9.5 13.4583C9.5 15.6445 11.2722 17.4167 13.4583 17.4167Z" stroke="#643A97" stroke-width="1.5" stroke-miterlimit="10" stroke-linecap="round" strokeLinejoin="round"/>
<path d="M11.5586 12.9437L12.9836 14.3687L15.3586 11.9937" stroke="#643A97" stroke-width="1.5" stroke-miterlimit="10"/>
</g>
<defs>
<clipPath id="clip0_136_694">
<rect width="19" height="19" fill="white"/>
</clipPath>
</defs>
</svg>
