<svg width="15" height="15" viewBox="0 0 15 15" fill="none" xmlns="http://www.w3.org/2000/svg">
<g clip-path="url(#clip0_136_709)">
<path d="M12.5 5H2.5C1.8125 5 1.25 4.4375 1.25 3.75V2.5C1.25 1.8125 1.8125 1.25 2.5 1.25H12.5C13.1875 1.25 13.75 1.8125 13.75 2.5V3.75C13.75 4.4375 13.1875 5 12.5 5Z" stroke="#643A97" stroke-linecap="round" strokeLinejoin="round"/>
<path d="M12.5 9.375H2.5C1.8125 9.375 1.25 8.8125 1.25 8.125V6.875C1.25 6.1875 1.8125 5.625 2.5 5.625H12.5C13.1875 5.625 13.75 6.1875 13.75 6.875V8.125C13.75 8.8125 13.1875 9.375 12.5 9.375Z" stroke="#643A97" stroke-linecap="round" strokeLinejoin="round"/>
<path d="M13.75 5H1.25V5.625H13.75V5Z" stroke="#643A97" stroke-linecap="round" strokeLinejoin="round"/>
<path d="M3.125 2.5V3.75" stroke="#643A97" strokeLinejoin="round"/>
<path d="M5 2.5V3.75" stroke="#643A97" strokeLinejoin="round"/>
<path d="M3.125 6.875V8.125" stroke="#643A97" strokeLinejoin="round"/>
<path d="M5 6.875V8.125" stroke="#643A97" strokeLinejoin="round"/>
<path d="M10 12.5H5V13.75H10V12.5Z" stroke="#643A97" stroke-linecap="round" strokeLinejoin="round"/>
<path d="M1.25 13.125H13.75" stroke="#643A97" stroke-linecap="square" strokeLinejoin="round"/>
<path d="M7.5 9.375V12.5" stroke="#643A97" stroke-linecap="round" strokeLinejoin="round"/>
</g>
<defs>
<clipPath id="clip0_136_709">
<rect width="15" height="15" fill="white"/>
</clipPath>
</defs>
</svg>
