<svg width="47" height="47" viewBox="0 0 47 47" fill="none" xmlns="http://www.w3.org/2000/svg">
<path fillRule="evenodd" clipRule="evenodd" d="M3.91699 11.75C3.91699 8.50534 6.54733 5.875 9.79199 5.875H37.2087C40.4534 5.875 43.0837 8.50534 43.0837 11.75V29.375C43.0837 32.6198 40.4534 35.25 37.2087 35.25H25.4587V37.2083H29.3753C30.4569 37.2083 31.3337 38.0851 31.3337 39.1667C31.3337 40.2483 30.4569 41.125 29.3753 41.125H17.6253C16.5438 41.125 15.667 40.2483 15.667 39.1667C15.667 38.0851 16.5438 37.2083 17.6253 37.2083H21.542V35.25H9.79199C6.54733 35.25 3.91699 32.6198 3.91699 29.375V11.75ZM9.79199 9.79167C8.71044 9.79167 7.83366 10.6685 7.83366 11.75V29.375C7.83366 30.4566 8.71044 31.3333 9.79199 31.3333H37.2087C38.2902 31.3333 39.167 30.4566 39.167 29.375V11.75C39.167 10.6685 38.2902 9.79167 37.2087 9.79167H9.79199Z" fill="#643A97"/>
<path d="M20.1928 20.4857L12.4554 20.4768L14.7199 18.2123C14.8671 18.0651 14.867 17.8262 14.7193 17.6785C14.5716 17.5308 14.3327 17.5306 14.1854 17.6779L11.2661 20.5971C11.1189 20.7444 11.119 20.9833 11.2668 21.131L14.1926 24.0569C14.3404 24.2046 14.5793 24.2047 14.7265 24.0575C14.8737 23.9103 14.8736 23.6714 14.7259 23.5237L12.4338 21.2316L20.1937 21.2406C20.4022 21.2409 20.5709 21.0721 20.5706 20.8636C20.5704 20.6551 20.4013 20.486 20.1928 20.4857Z" fill="#643A97"/>
<path d="M26.5337 20.4857L34.2712 20.4768L32.0067 18.2123C31.8595 18.0651 31.8596 17.8262 32.0073 17.6785C32.155 17.5308 32.3939 17.5306 32.5412 17.6779L35.4604 20.5971C35.6077 20.7444 35.6075 20.9833 35.4598 21.131L32.5339 24.0569C32.3862 24.2046 32.1473 24.2047 32.0001 24.0575C31.8528 23.9103 31.853 23.6714 32.0007 23.5237L34.2927 21.2316L26.5329 21.2406C26.3244 21.2409 26.1557 21.0721 26.1559 20.8636C26.1561 20.6551 26.3252 20.486 26.5337 20.4857Z" fill="#643A97"/>
</svg>
