<svg width="75" height="75" viewBox="0 0 75 75" fill="none" xmlns="http://www.w3.org/2000/svg">
<rect width="75" height="75" fill="#200047"/>
<mask id="path-1-inside-1_136_636" fill="white">
<path d="M41.1975 37.2298C43.4565 35.9142 45 33.4645 45 30.6316C45 26.4235 41.6355 23 37.5 23C33.3645 23 30 26.4235 30 30.6316C30 33.4645 31.5435 35.9142 33.8025 37.2298C28.152 38.7394 24 43.6007 24 49.3625V51.2368C24 51.6581 24.336 52 24.75 52C25.164 52 25.5 51.6581 25.5 51.2368V49.3625C25.5 43.2436 30.8835 38.2632 37.5 38.2632C44.1164 38.2632 49.5 43.2436 49.5 49.3625V51.2368C49.5 51.6581 49.836 52 50.25 52C50.664 52 51 51.6581 51 51.2368V49.3625C50.9999 43.6007 46.8479 38.7379 41.1975 37.2298ZM31.5 30.6316C31.5 27.2646 34.191 24.5264 37.5 24.5264C40.8089 24.5264 43.4999 27.2646 43.4999 30.6316C43.4999 33.9986 40.8089 36.7368 37.5 36.7368C34.191 36.7368 31.5 33.9987 31.5 30.6316Z"/>
</mask>
<path d="M41.1975 37.2298C43.4565 35.9142 45 33.4645 45 30.6316C45 26.4235 41.6355 23 37.5 23C33.3645 23 30 26.4235 30 30.6316C30 33.4645 31.5435 35.9142 33.8025 37.2298C28.152 38.7394 24 43.6007 24 49.3625V51.2368C24 51.6581 24.336 52 24.75 52C25.164 52 25.5 51.6581 25.5 51.2368V49.3625C25.5 43.2436 30.8835 38.2632 37.5 38.2632C44.1164 38.2632 49.5 43.2436 49.5 49.3625V51.2368C49.5 51.6581 49.836 52 50.25 52C50.664 52 51 51.6581 51 51.2368V49.3625C50.9999 43.6007 46.8479 38.7379 41.1975 37.2298ZM31.5 30.6316C31.5 27.2646 34.191 24.5264 37.5 24.5264C40.8089 24.5264 43.4999 27.2646 43.4999 30.6316C43.4999 33.9986 40.8089 36.7368 37.5 36.7368C34.191 36.7368 31.5 33.9987 31.5 30.6316Z" fill="white"/>
<path d="M41.1975 37.2298L37.6746 31.181L23.1288 39.6525L39.3924 43.9931L41.1975 37.2298ZM33.8025 37.2298L35.6092 43.9927L51.866 39.6496L37.3254 31.181L33.8025 37.2298ZM25.5 49.3625H32.5V49.3624L25.5 49.3625ZM51 49.3625H58V49.3624L51 49.3625ZM41.1975 37.2298L44.7204 43.2787C49.0199 40.7747 52 36.0832 52 30.6316H45H38C38 30.7581 37.9695 30.8538 37.9192 30.9388C37.8622 31.0354 37.7755 31.1221 37.6746 31.181L41.1975 37.2298ZM45 30.6316H52C52 22.6728 45.6157 16 37.5 16V23V30C37.5901 30 37.6944 30.0285 37.8082 30.1443C37.9239 30.262 38 30.425 38 30.6316H45ZM37.5 23V16C29.3842 16 23 22.6728 23 30.6316H30H37C37 30.425 37.076 30.262 37.1918 30.1443C37.3055 30.0285 37.4098 30 37.5 30V23ZM30 30.6316H23C23 36.0832 25.98 40.7747 30.2795 43.2787L33.8025 37.2298L37.3254 31.181C37.2244 31.1221 37.1378 31.0354 37.0807 30.9388C37.0305 30.8538 37 30.7581 37 30.6316H30ZM33.8025 37.2298L31.9957 30.467C23.6613 32.6936 17 40.0548 17 49.3625H24H31C31 47.1466 32.6427 44.7852 35.6092 43.9927L33.8025 37.2298ZM24 49.3625H17V51.2368H24H31V49.3625H24ZM24 51.2368H17C17 55.4088 20.3558 59 24.75 59V52V45C28.3163 45 31 47.9074 31 51.2368H24ZM24.75 52V59C29.1443 59 32.5 55.4088 32.5 51.2368H25.5H18.5C18.5 47.9074 21.1838 45 24.75 45V52ZM25.5 51.2368H32.5V49.3625H25.5H18.5V51.2368H25.5ZM25.5 49.3625L32.5 49.3624C32.5 47.6134 34.2256 45.2632 37.5 45.2632V38.2632V31.2632C27.5414 31.2632 18.4999 38.8737 18.5 49.3626L25.5 49.3625ZM37.5 38.2632V45.2632C40.7743 45.2632 42.5 47.6134 42.5 49.3625H49.5H56.5C56.5 38.8737 47.4585 31.2632 37.5 31.2632V38.2632ZM49.5 49.3625H42.5V51.2368H49.5H56.5V49.3625H49.5ZM49.5 51.2368H42.5C42.5 55.4088 45.8557 59 50.25 59V52V45C53.8162 45 56.5 47.9073 56.5 51.2368H49.5ZM50.25 52V59C54.6443 59 58 55.4088 58 51.2368H51H44C44 47.9074 46.6837 45 50.25 45V52ZM51 51.2368H58V49.3625H51H44V51.2368H51ZM51 49.3625L58 49.3624C57.9999 40.056 51.3397 32.6917 43.0025 30.4666L41.1975 37.2298L39.3924 43.9931C42.3561 44.7841 44 47.1455 44 49.3626L51 49.3625ZM31.5 30.6316H38.5C38.5 31.0153 38.1713 31.5264 37.5 31.5264V24.5264V17.5264C30.2107 17.5264 24.5 23.5139 24.5 30.6316H31.5ZM37.5 24.5264V31.5264C36.8287 31.5264 36.4999 31.0153 36.4999 30.6316H43.4999H50.4999C50.4999 23.5138 44.7892 17.5264 37.5 17.5264V24.5264ZM43.4999 30.6316H36.4999C36.4999 30.2479 36.8287 29.7368 37.5 29.7368V36.7368V43.7368C44.7892 43.7368 50.4999 37.7493 50.4999 30.6316H43.4999ZM37.5 36.7368V29.7368C38.1712 29.7368 38.5 30.2479 38.5 30.6316H31.5H24.5C24.5 37.7495 30.2108 43.7368 37.5 43.7368V36.7368Z" fill="white" mask="url(#path-1-inside-1_136_636)"/>
</svg>
