<svg width="41" height="41" viewBox="0 0 41 41" fill="none" xmlns="http://www.w3.org/2000/svg">
<path d="M39.975 22.7208C39.2917 22.3792 38.2667 22.2083 37.5833 22.55L35.875 23.2333V2.73333C35.875 1.19583 34.6792 0 33.3125 0H29.8958C28.5292 0 27.3333 1.19583 27.3333 2.5625V5.125H23.0625C21.6958 5.125 20.5 6.32083 20.5 7.6875V13.6667H16.2292C14.8625 13.6667 13.6667 14.8625 13.6667 16.2292V25.1125L8.54167 26.3083V25.7958C8.54167 24.7708 8.02917 23.9167 7.175 23.575L5.125 22.55C4.78333 21.3542 3.75833 20.5 2.5625 20.5H0.854167C0.341667 20.5 0 20.8417 0 21.3542V40.1458C0 40.6583 0.341667 41 0.854167 41H2.5625C3.75833 41 4.78333 40.1458 5.125 38.95L7.175 37.925C7.85833 37.5833 8.37083 36.7292 8.54167 35.875L16.7417 40.6583C17.0833 40.8292 17.5958 41 18.1083 41C18.45 41 18.9625 40.8292 19.3042 40.6583L39.8042 29.725C40.6583 29.2125 41.1708 28.3583 41.1708 27.5042V24.9417C41 24.0875 40.6583 23.2333 39.975 22.7208ZM3.41667 38.4375C3.41667 38.95 3.075 39.2917 2.5625 39.2917H1.70833V22.2083H2.5625C3.075 22.2083 3.41667 22.55 3.41667 23.0625V38.4375ZM6.83333 35.7042C6.83333 36.0458 6.6625 36.3875 6.32083 36.3875L5.125 37.0708V24.4292L6.32083 25.1125C6.6625 25.2833 6.83333 25.4542 6.83333 25.7958V35.7042ZM29.0417 2.5625C29.0417 2.05 29.3833 1.70833 29.8958 1.70833H33.3125C33.825 1.70833 34.1667 2.05 34.1667 2.5625V23.7458L29.0417 25.625V2.5625ZM22.2083 7.6875C22.2083 7.175 22.55 6.83333 23.0625 6.83333H27.3333V26.3083L24.9417 27.1625L24.4292 25.2833C24.0875 24.2583 23.2333 23.575 22.3792 23.4042V7.6875H22.2083ZM15.375 16.2292C15.375 15.7167 15.7167 15.375 16.2292 15.375H20.5V23.575L15.375 24.7708V16.2292ZM39.2917 27.3333C39.2917 27.675 39.1208 28.0167 38.7792 28.0167L18.2792 39.1208C18.1083 39.2917 17.7667 39.2917 17.425 39.1208L8.54167 33.9958V28.0167L21.6958 25.1125C22.2083 24.9417 22.55 25.2833 22.7208 25.7958L23.575 28.5292C23.575 28.7 23.575 29.0417 23.575 29.2125C23.4042 29.3833 23.2333 29.5542 23.0625 29.5542L17.9375 30.75C17.425 30.9208 17.2542 31.2625 17.2542 31.775C17.425 32.1167 17.7667 32.4583 18.1083 32.4583H18.2792L23.4042 31.2625C24.0875 31.0917 24.6 30.5792 24.9417 30.0667C25.1125 29.725 25.2833 29.3833 25.2833 29.0417L38.2667 24.2583C38.6083 24.0875 38.7792 24.2583 39.1208 24.4292C39.2917 24.6 39.4625 24.7708 39.4625 25.1125V27.3333H39.2917Z" fill="#643A97"/>
</svg>
