<svg width="41" height="41" viewBox="0 0 41 41" fill="none" xmlns="http://www.w3.org/2000/svg">
<path d="M5.17338 17.0834L17.467 25.3117C18.5629 26.0424 19.111 26.4076 19.7032 26.5496C20.2265 26.675 20.7721 26.675 21.2956 26.5496C21.8879 26.4076 22.4359 26.0424 23.5318 25.3117L35.8255 17.0834M17.5926 6.95088L7.68432 13.1734C6.74998 13.7602 6.28282 14.0536 5.94397 14.4502C5.64408 14.8012 5.41842 15.2094 5.28065 15.6501C5.125 16.1479 5.125 16.6996 5.125 17.8029V28.7C5.125 30.6135 5.125 31.5704 5.4974 32.3012C5.82496 32.944 6.34764 33.4668 6.99053 33.7943C7.72139 34.1667 8.67815 34.1667 10.5917 34.1667H30.4083C32.3218 34.1667 33.2787 34.1667 34.0095 33.7943C34.6523 33.4668 35.1751 32.944 35.5026 32.3012C35.875 31.5704 35.875 30.6135 35.875 28.7V17.8029C35.875 16.6996 35.875 16.1479 35.7194 15.6501C35.5815 15.2094 35.356 14.8012 35.056 14.4502C34.7173 14.0536 34.25 13.7602 33.3157 13.1734L23.4074 6.95088C22.3529 6.28868 21.8257 5.95758 21.26 5.82852C20.7597 5.71439 20.2403 5.71439 19.74 5.82852C19.1743 5.95758 18.6471 6.28868 17.5926 6.95088Z" stroke="#643A97" stroke-width="2" stroke-linecap="round" stroke-linejoin="round"/>
</svg>
