<svg width="38" height="38" viewBox="0 0 38 38" fill="none" xmlns="http://www.w3.org/2000/svg">
<path d="M20.3173 32.4189H17.8438C17.6863 32.4189 17.5353 32.4815 17.4239 32.5929C17.3126 32.7042 17.25 32.8552 17.25 33.0127C17.25 33.1702 17.3126 33.3212 17.4239 33.4325C17.5353 33.5439 17.6863 33.6064 17.8438 33.6064H20.3173C20.4748 33.6064 20.6258 33.5439 20.7372 33.4325C20.8485 33.3212 20.9111 33.1702 20.9111 33.0127C20.9111 32.8552 20.8485 32.7042 20.7372 32.5929C20.6258 32.4815 20.4748 32.4189 20.3173 32.4189Z" fill="#643A97"/>
<path d="M31.517 8.91219C31.5172 8.84331 31.5051 8.77495 31.4813 8.71031C31.4722 8.6951 31.4643 8.67923 31.4576 8.66281C31.4457 8.63906 31.4398 8.62125 31.4279 8.5975L27.622 2.61844C27.5178 2.45278 27.3732 2.3163 27.2019 2.2218C27.0305 2.12729 26.838 2.07786 26.6423 2.07813H11.3591C11.1634 2.07786 10.9709 2.12729 10.7995 2.2218C10.6282 2.3163 10.4836 2.45278 10.3795 2.61844L6.57352 8.5975C6.56164 8.62125 6.5557 8.63906 6.54383 8.66281C6.53713 8.67923 6.52919 8.6951 6.52008 8.71031C6.49628 8.77495 6.48421 8.84331 6.48445 8.91219L6.47852 8.91813V11.6553C6.48154 12.2875 6.68655 12.9021 7.06361 13.4095C7.44067 13.9168 7.97005 14.2904 8.57445 14.4756V32.49C8.57618 33.4007 8.93912 34.2735 9.58364 34.9169C10.2281 35.5603 11.1016 35.9217 12.0123 35.9219H25.9891C26.8998 35.9217 27.7733 35.5603 28.4178 34.9169C29.0623 34.2735 29.4252 33.4007 29.427 32.49V14.4756C30.0314 14.2904 30.5607 13.9168 30.9378 13.4095C31.3149 12.9021 31.5199 12.2875 31.5229 11.6553V8.91813L31.517 8.91219ZM26.6185 3.25375L29.8426 8.32438H26.5532L24.4335 3.25375H26.6185ZM23.1451 3.25375L25.2648 8.32438H21.916L21.3638 3.25969L23.1451 3.25375ZM25.5616 9.51188V11.6553C25.5616 12.1277 25.374 12.5808 25.0399 12.9148C24.7059 13.2489 24.2528 13.4366 23.7804 13.4366H23.7626C23.2902 13.4366 22.8371 13.2489 22.503 12.9148C22.169 12.5808 21.9813 12.1277 21.9813 11.6553V9.51188H25.5616ZM17.831 3.25969H20.1704L20.7226 8.32438H17.2788L17.831 3.25969ZM17.2076 9.51188H20.7938V11.6553C20.7938 12.1277 20.6062 12.5808 20.2721 12.9148C19.9381 13.2489 19.485 13.4366 19.0126 13.4366H18.9888C18.5164 13.4366 18.0633 13.2489 17.7293 12.9148C17.3952 12.5808 17.2076 12.1277 17.2076 11.6553V9.51188ZM16.6376 3.25969L16.0854 8.32438H12.7366L14.8563 3.26563L16.6376 3.25969ZM16.0201 9.51188V11.6553C16.0201 12.1277 15.8324 12.5808 15.4984 12.9148C15.1643 13.2489 14.7112 13.4366 14.2388 13.4366H14.221C13.7486 13.4366 13.2955 13.2489 12.9615 12.9148C12.6274 12.5808 12.4398 12.1277 12.4398 11.6553V9.51188H16.0201ZM11.3591 3.26563H13.5679L11.4482 8.32438H8.15289L11.3591 3.26563ZM9.47102 13.4366H9.44727C8.97485 13.4366 8.52178 13.2489 8.18773 12.9148C7.85368 12.5808 7.66602 12.1277 7.66602 11.6553V9.51188H11.2523V11.6553C11.2523 12.1277 11.0646 12.5808 10.7305 12.9148C10.3965 13.2489 9.94343 13.4366 9.47102 13.4366ZM28.2395 32.49C28.2376 33.0857 27.9997 33.6564 27.5779 34.077C27.1561 34.4977 26.5848 34.7341 25.9891 34.7344H12.0123C11.4166 34.7341 10.8453 34.4977 10.4235 34.077C10.0017 33.6564 9.76384 33.0857 9.76195 32.49V31.2966H28.2395V32.49ZM28.2395 30.1091H9.76195V14.5944C10.1723 14.5552 10.5698 14.4303 10.9288 14.2278C11.2878 14.0253 11.6003 13.7497 11.846 13.4188C12.1196 13.7919 12.4771 14.0955 12.8897 14.3048C13.3023 14.5142 13.7583 14.6236 14.221 14.6241H14.2388C14.7015 14.6236 15.1576 14.5142 15.5702 14.3048C15.9828 14.0955 16.3403 13.7919 16.6138 13.4188C16.8874 13.7919 17.2449 14.0955 17.6575 14.3048C18.0701 14.5142 18.5261 14.6236 18.9888 14.6241H19.0126C19.4753 14.6236 19.9313 14.5142 20.3439 14.3048C20.7565 14.0955 21.114 13.7919 21.3876 13.4188C21.6611 13.7919 22.0186 14.0955 22.4312 14.3048C22.8438 14.5142 23.2999 14.6236 23.7626 14.6241H23.7804C24.2431 14.6236 24.6991 14.5142 25.1117 14.3048C25.5243 14.0955 25.8818 13.7919 26.1554 13.4188C26.4011 13.7497 26.7136 14.0253 27.0726 14.2278C27.4316 14.4303 27.8291 14.5552 28.2395 14.5944V30.1091ZM30.3354 11.6553C30.3354 12.1277 30.1477 12.5808 29.8137 12.9148C29.4796 13.2489 29.0266 13.4366 28.5541 13.4366H28.5304C28.058 13.4366 27.6049 13.2489 27.2709 12.9148C26.9368 12.5808 26.7491 12.1277 26.7491 11.6553V9.51188H30.3354V11.6553Z" fill="#643A97"/>
</svg>
