<svg width="41" height="41" viewBox="0 0 41 41" fill="none" xmlns="http://www.w3.org/2000/svg">
<path d="M32.5308 2.32817L30.4304 4.40441L29.0868 3.67174C26.5706 2.27938 24.2016 1.66889 20.6838 1.54671C16.7999 1.37574 14.5285 1.86446 11.1575 3.52537C7.15138 5.52822 4.31828 8.33754 2.36381 12.3432C0.727496 15.6409 0.410156 17.0816 0.410156 21.2587C0.434756 24.6051 0.458946 24.9229 1.21622 27.1209C3.92755 35.0109 10.5962 40.1404 18.852 40.7021C27.8896 41.3372 36.3167 35.2553 38.9305 26.2172C39.3946 24.6297 39.4922 23.7503 39.468 20.8926C39.4434 17.8639 39.3704 17.253 38.7837 15.3965C38.393 14.2485 37.7579 12.6852 37.3425 11.9037L36.6099 10.4868L38.5881 8.48391C41.397 5.675 41.2995 5.16209 37.9776 4.77095C36.3167 4.57538 36.4631 4.81974 36.0482 1.88865C35.9014 0.838227 35.4619 0.251926 34.8268 0.251926C34.7538 0.251926 33.7034 1.18017 32.5308 2.32817ZM24.2992 3.81811C25.1053 4.01327 26.5222 4.52659 27.4505 4.94192L29.1356 5.69919L27.5235 7.3355L25.8867 8.97222L24.25 8.41052C15.7011 5.43064 6.63888 11.8299 6.5413 20.868C6.5167 24.6785 7.83567 27.9027 10.5228 30.5407C13.2095 33.2032 16.2144 34.4488 19.9516 34.4488C23.6399 34.4488 26.7666 33.1544 29.3316 30.5649C32.0671 27.8293 33.2643 24.8983 33.2643 20.9409C33.2643 19.28 33.1179 18.3518 32.6292 16.9106L32.0187 15.0542L33.6062 13.4908L35.1695 11.9029L35.6579 12.709C35.951 13.1485 36.4639 14.4679 36.8551 15.6159C37.4655 17.5211 37.5389 18.034 37.5389 21.1361C37.5389 24.0672 37.4655 24.8003 36.9772 26.2656C35.9514 29.3431 34.7788 31.2241 32.5316 33.4714C29.0388 36.9887 25.5702 38.5275 20.7826 38.7718C17.4604 38.9428 15.1402 38.4787 12.0382 36.9641C10.0841 36.0359 9.40023 35.523 7.49496 33.6177C3.85416 30.0032 2.21785 26.1196 2.21785 21.1365C2.19325 18.1078 2.70657 15.8848 3.95215 13.3199C7.64051 5.74798 16.2386 1.71768 24.2992 3.81811ZM34.4848 4.35562C34.4848 5.13749 34.2897 5.45483 33.1659 6.57864L31.8711 7.87342L31.7001 6.94518C31.5292 6.09033 31.5779 5.96815 32.7993 4.74676C33.532 4.01409 34.1917 3.42779 34.2897 3.42779C34.3873 3.42738 34.4848 3.84271 34.4848 4.35562ZM37.4163 6.60283C37.6119 6.60283 37.1478 7.23792 36.3659 8.01938C35.0957 9.31416 34.8756 9.43634 34.0941 9.33835L33.2147 9.24036L34.6558 7.77461C35.7062 6.7 36.1945 6.35806 36.5611 6.45564C36.83 6.52985 37.2208 6.60283 37.4163 6.60283ZM30.0884 8.87464C30.0884 9.50973 29.8199 9.92506 28.7694 10.9755L27.4259 12.2944L27.2549 11.3908C27.1081 10.5114 27.1573 10.3892 28.3783 9.16779C29.111 8.43512 29.7707 7.89761 29.8928 7.971C29.9904 8.04398 30.0884 8.45931 30.0884 8.87464ZM22.4427 9.80288C23.0778 9.94966 24.0061 10.2424 24.4702 10.4622C25.2762 10.8529 25.3496 10.9751 25.5206 12.4162C25.7404 13.9062 25.7162 14.0041 25.0811 14.6634L24.4214 15.3473L23.2 14.7122C21.5633 13.8816 19.3895 13.7106 17.6064 14.2969C15.6769 14.9566 13.6495 17.0328 13.0874 18.9381C12.0857 22.4555 13.6003 25.9487 16.8491 27.5362C18.6322 28.391 21.0504 28.4644 22.7847 27.6826C24.2504 27.0229 25.8379 25.4354 26.4976 23.9696C27.2795 22.2841 27.2303 19.5974 26.3513 17.9365L25.7158 16.6909L26.4242 16.007C27.0839 15.3719 27.2303 15.3473 28.5247 15.4941C29.2819 15.5675 29.9904 15.7138 30.1122 15.7626C30.4787 16.007 31.2848 18.4986 31.4312 19.9397C31.8953 23.97 29.6723 28.5378 26.2283 30.7608C19.5596 35.0355 10.7417 31.5181 8.7143 23.8236C7.17639 17.9123 10.9381 11.5372 16.9225 9.92506C18.51 9.48513 20.8552 9.43634 22.4427 9.80288ZM31.8961 12.4654C30.6013 13.7598 30.3816 13.882 29.6489 13.7598L28.8182 13.6134L30.1864 12.2457C31.432 10.9755 31.6522 10.8533 32.4336 10.9509L33.3131 11.0489L31.8961 12.4654ZM22.223 16.3489L23.0536 16.7643L20.9286 18.7671C19.1209 20.4768 18.8278 20.868 18.9499 21.3809C19.0233 21.6982 19.3407 22.0406 19.6096 22.1135C20.0492 22.2603 20.5375 21.8938 22.2718 20.1595L24.3968 18.0344L24.8121 19.0361C26.7662 23.97 21.0504 28.489 16.8249 25.3378C13.6495 22.9196 14.1624 17.8143 17.7532 16.2268C18.8278 15.7626 21.2459 15.8118 22.223 16.3489Z" fill="#643A97"/>
</svg>
